<svg id="Capa_1" data-name="Capa 1" xmlns="http://www.w3.org/2000/svg" viewBox="0 0 841.89 595.28"><defs><style>.cls-1{fill:#16244b;}.cls-2{fill:#fff;}</style></defs><title>Emprende GYE</title><path class="cls-1" d="M409.7,194.94a9.2,9.2,0,0,1,4.36,4.85c1.29,3.39.49,6.3-2.26,13.57,5,2.43,11.47,4.53,16.65,7.28a2.62,2.62,0,0,1,1.13.64c10.18,5.82,1,23.28-4.69,32.66-.65,1-1.13,1.93-1.62,2.74-5.81,10-12,19.72-13.41,25.54-.81,3.4-1,6.95,3.39,7.6,10.35,0,28.45-30.39,31.85-35.88,1.77-2.91,5.33-2.43,5.33,0a3.52,3.52,0,0,1-.49,1.61c-5,8.89-24.24,45.42-42,45.91h-.49c-5.49-.49-9.05-3.24-11.15-8.25-4.52-10.5,3.88-26.34,11.48-39.27,2.26-3.72,4.36-7.12,6-10.19,3.72-6.3,5.17-11,.32-14.22a39.35,39.35,0,0,0-7.76-4c-4,7.11-9.86,18.59-15.51,28.45a5.84,5.84,0,0,0-1,1.61c-3.08,5-6.63,1.46-4.85-1.61,6.46-10.83,12.6-23.77,16.32-30.72a14.57,14.57,0,0,1-4.69-2.58c-10.34-8.08-4.52-25.7,6.47-26.51C405.17,194,407.92,194,409.7,194.94ZM407,198.17c-3.72-1.94-6.14,2.59-6.14,7.27,0,3.08,1.45,3.08,6.46,5.82,2.1-5.33,2.43-8.72,1.62-10.83A3.89,3.89,0,0,0,407,198.17Z"/><path class="cls-1" d="M495.2,253.94c-10.5,12.76-26.67,21.82-36.2,10.34a72.93,72.93,0,0,0-3.4,11.8c-1.77,9.37.33,16.32,7.11,16.32,18.75,0,37.83-22.46,48.33-38.46,1.78-2.91,5.5-2.43,5.34,0a3.52,3.52,0,0,1-.49,1.61c-17.61,30.55-40.08,45.91-58.19,45.91-23.27,0-24.08-25.22-12.6-47.52,8.4-16.49,25.21-33.3,44.93-33.3C511,220.64,506.68,239.71,495.2,253.94Zm-30.87.16a30.17,30.17,0,0,0-3.23,6c4.52,4.52,12.77.32,19.88-6.14,10.18-9.22,18.27-23.28,10.34-23.44-8.89.48-22,16.65-26.83,23.44Z"/><path class="cls-1" d="M695.07,165.49l-.09,0,.23.08Z"/><path class="cls-1" d="M695.21,165.54l-.23-.08-.24-.07-.54-.14-.26-.05a5.07,5.07,0,0,0-.54-.09l-.24,0a6.45,6.45,0,0,0-.76,0c-3.23,0-6.46,2.1-8.73,5-.8,1-1.61,1.94-2.42,3.07-9.37,12.28-23.92,33.46-33,47.52-2.75,4.2-5,7.76-6.47,10.18a13.9,13.9,0,0,0-5-8l-.23-.16a10,10,0,0,0-2.1-1.15l-.29-.12a11.42,11.42,0,0,0-1.25-.4,13.33,13.33,0,0,0-1.37-.26l-.36,0a14.79,14.79,0,0,0-1.52-.09h-.16c-17,0-32.65,15.68-42,33.3-11.48,21.49-13.25,45.9,4,47.52.65,0,1.3.16,1.94.16s.81-.16,1.29-.16c.32,0,.64-.1,1-.16l.31-.08.63-.15L597,301a5.22,5.22,0,0,0,.56-.18l.4-.15c.17-.07.35-.13.52-.21l.41-.18.51-.24.4-.22a4.67,4.67,0,0,0,.49-.27,3.38,3.38,0,0,0,.41-.24l.48-.29.41-.27.47-.32.4-.29.47-.35.39-.3.46-.38.39-.32.46-.41L605,296l.46-.43.36-.34.47-.46.34-.34c.16-.16.31-.33.47-.5l.32-.33L608,293l.27-.29c4.49-5,8.28-11.11,11.1-15.05a25.33,25.33,0,0,0,1.56,16.55h0q.2.42.42.81l.15.26.31.53.19.29.32.46.21.29.33.42.23.28c.12.14.25.27.37.4l.24.25c.14.14.28.28.43.41s.13.13.21.19a8.49,8.49,0,0,0,.67.55h0c.24.17.48.33.73.48l.24.15.53.28a3,3,0,0,0,.31.15l.51.22.34.13.53.17.36.11.56.13.37.07.64.08.33,0c.33,0,.67,0,1,0,17.94,0,38-37,43.15-45.91a3.52,3.52,0,0,0,.49-1.61c.16-2.43-3.56-2.91-5.17,0-3.72,5.49-22.15,35.88-32.49,35.88-6.63,0-.65-16.33,9.53-35.88,2.27-4.37,4.69-8.89,7.28-13.42,2.58-4.69,7.11-11.8,12.28-19.88l1.72-2.61c.1-.15.2-.29.29-.44.57-.84,1.14-1.7,1.71-2.56.11-.15.21-.31.32-.47l1.79-2.66.12-.17c.58-.86,1.17-1.72,1.75-2.59l.3-.43,1.79-2.6.36-.52c.6-.87,1.21-1.75,1.82-2.61l.23-.34,1.77-2.51.22-.3c.61-.86,1.21-1.71,1.82-2.55l.37-.51,1.79-2.47.28-.38c.59-.8,1.17-1.59,1.75-2.36l.15-.21,1.78-2.36.33-.44,1.71-2.21.3-.39c.57-.73,1.14-1.45,1.7-2.14l0-.05c.56-.7,1.11-1.37,1.65-2l.3-.36c.52-.63,1-1.23,1.53-1.81l.29-.34c.52-.59,1-1.16,1.51-1.7l0,0A7.4,7.4,0,0,0,695.21,165.54Zm-63.58,81.93a57.57,57.57,0,0,1-3.24,6.47c-8.4,15.35-29.25,48.81-31.84,30.06-1.13-7.6,3.88-19.56,10.35-30.06,7.59-11.8,17.13-21.66,22.47-21C638.09,233.89,632.6,244.24,631.63,247.47Z"/><polygon class="cls-1" points="620.9 294.25 620.91 294.25 620.9 294.25 620.9 294.25"/><path class="cls-1" d="M720.05,253.94c-10.51,12.76-26.67,21.82-36.21,10.34a74,74,0,0,0-3.4,11.8c-1.77,9.37.33,16.32,7.12,16.32,18.75,0,37.82-22.46,48.32-38.46,1.78-2.91,5.5-2.43,5.34,0a3.52,3.52,0,0,1-.49,1.61c-17.61,30.55-40.08,45.91-58.18,45.91-23.28,0-24.09-25.22-12.61-47.52,8.4-16.49,25.21-33.3,44.93-33.3C735.88,220.64,731.52,239.71,720.05,253.94Zm-30.88.16a30.17,30.17,0,0,0-3.23,6c4.52,4.52,12.77.32,19.88-6.14,10.18-9.22,18.27-23.28,10.35-23.44-8.89.48-22,16.65-26.84,23.44Z"/><path class="cls-1" d="M335.71,221.25s5.53,1.26,6.53,10.19L333,242.35l-12.7,1.13,5.05-11.68L335,221.25"/><path class="cls-1" d="M327.31,285.25l-.06.06Z"/><path class="cls-1" d="M327.6,285c.95-.84,1.92-1.76,2.89-2.78a.21.21,0,0,0,0-.06C329.09,283.63,328.11,284.53,327.6,285Z"/><path class="cls-1" d="M338.25,272.68c1.35-1.85,2.63-3.8,3.85-5.79-1.38,2.14-2.7,4.05-4,5.77Z"/><path class="cls-1" d="M385,253.94c-5.82,8.56-13.74,18.74-23,23.76-4.52,2.42-7.76,3.23-10.5,2.91a91.05,91.05,0,0,0,13.09-26.67c5.33-17.62,3.88-33.3-7.92-33.3-8.41,0-17.62,9.37-25.86,18.75a124.36,124.36,0,0,1,9.86-12.29,8.45,8.45,0,0,0-7.44-6.46h-1.61a14.42,14.42,0,0,0-9.22,5.82c-2.91,4.68-9.21,14.87-16.65,27.48-9.21,15.84-18.91,31.51-27.8,47.52-8.24,15-15,28.93-17,38.79-1.29,6.79-1.45,16.81,6.95,16.81,4.12,0,9.2-1.48,10.41-5.89,2.22-8.11,3.14-16.11,6.29-24.17,3.41-8.71,7.63-17.07,11.59-25.54,3.07-6.47,6.14-13.1,8.89-19.24-.16,10.51,3.55,18.27,12,19.24.48,0,1,.16,1.61.16s1.46-.16,2.11-.16c8.56-.65,16.32-5.18,22.95-11.8,22.95-.16,38-19.4,46.06-34.11a3.52,3.52,0,0,0,.49-1.61C390.46,251.35,386.74,250.7,385,253.94Zm-42.77,12.8,0-.05-.14.2a94.48,94.48,0,0,1-10.21,13.74c-3,3.36-7.75,9.26-12.87,8.7-10.35-1.13-3.07-19.88,7.11-35.39,10.34-15.68,23.92-28,25.7-15.68.49,4.2-.65,9.69-3.07,15.68A92.3,92.3,0,0,1,342.2,266.74Z"/><path class="cls-1" d="M342.24,266.69l0,.05-.1.15Z"/><path class="cls-1" d="M795.56,243.43c-.2-2.71-.46-5.9-.84-9.09-.32-2.67-.74-5.85-1.37-9.16l0-.13a5.22,5.22,0,0,0-4.89-4.26A51.53,51.53,0,0,0,775,222.11l-3.1.74-2,.59-1,.29c-1.09.31-2.12.67-3.13,1L765,225c-.73.25-1.47.5-2.23.82-3.41,1.3-7,2.91-11.41,5.08l-.39.2-.33.3a3.2,3.2,0,0,0-.73,4c1.46,2.6,3.78,2,13.56-.74l2-.55a83.53,83.53,0,0,1,11.25-2.4l.7-.1c1.26-.17,4.49-.6,5.63-.28a8.81,8.81,0,0,1,.5,3.43v.11c.07,2.95.14,6,.13,9,0,6.57-.22,12-.65,17.16a168.57,168.57,0,0,1-5.93,33.44,121.08,121.08,0,0,1-5.6,15.69c-.22.49-.43,1-.64,1.47-.35.82-.68,1.59-1.05,2.34l-1.88,3.8c-.37.74-.79,1.47-1.23,2.25l-.76,1.35-1,1.77-1.13,1.79a98,98,0,0,1-21.53,24.57L740.39,351a3.94,3.94,0,0,0-1.26,4.22l.72,2.31c.13.41.29.95.41,1.42l.43,1.62c.31,1.25.55,2.28.75,3.27.47,2.21.87,4.43,1.18,6.6a76.4,76.4,0,0,1,.74,13.14,45,45,0,0,1-2,12.36,31.52,31.52,0,0,1-2.26,5.31l-.45.76a15.75,15.75,0,0,1-1,1.6c-.14.18-.27.37-.4.55s-.28.4-.4.55l-1,1.19-.09.11a10.38,10.38,0,0,1-.82.82l-1,1-1.27,1a6.88,6.88,0,0,1-.81.6l-.1.06L731,410a15.36,15.36,0,0,1-1.76,1.05L713,418.93c-5.63,2.74-11.33,5.58-16.83,8.33l-.35.17c.13-.5.25-1,.32-1.42.69-3.87,1.51-7.62,2.44-11.21.16-.71.36-1.41.56-2.11l.36-1.28c.18-.64.36-1.28.59-2l.88-2.7,1-2.62c.62-1.61,2.1-5.36-1-6.78s-5,2.14-5.84,3.74l-1.33,2.66-1.24,2.79c-.35.76-.64,1.5-.92,2.21l-.5,1.26c-.31.78-.62,1.56-.87,2.27-1.49,4-2.66,8.12-3.61,11.62-.49,1.8-1,3.73-1.47,5.9-.43,1.89-.88,3.92-1.23,6.05l-.4,2.37a4,4,0,0,0,3.9,4.6,3.88,3.88,0,0,0,1.53-.31l2.36-1,9.53-4c5.66-2.35,11.51-4.78,17.24-7.23l13.34-5.7,1.75-.76L735,423a28.91,28.91,0,0,0,3.23-1.73l.51-.3a20.22,20.22,0,0,0,2-1.34l1.64-1.2,1.75-1.53a18.13,18.13,0,0,0,1.69-1.63l1.43-1.54c.35-.4.68-.81,1-1.23.12-.17.25-.33.34-.45a25.59,25.59,0,0,0,2-2.85c.16-.25.33-.51.45-.71l.16-.25a42.16,42.16,0,0,0,3.6-7.75A58.71,58.71,0,0,0,758,384.31a88.77,88.77,0,0,0-.63-15.79c-.34-2.67-.76-5.25-1.26-7.69-.13-.66-.27-1.33-.42-2-.07-.29-.14-.58-.23-.88l1.59-1.37,1.82-1.75,1.12-1.08c.75-.73,1.5-1.45,2.23-2.2L765.4,348a106.81,106.81,0,0,0,11.14-15.28l1.2-2,1.19-2.19c.25-.46.5-.91.74-1.37.49-.89,1-1.81,1.47-2.8l2-4.13c.47-1,.87-1.94,1.25-2.88l.63-1.5a138.07,138.07,0,0,0,5.85-17.7A168,168,0,0,0,794.39,280c.79-6,1.29-12.12,1.49-18.3C796.07,255.09,796,249.11,795.56,243.43Z"/><path class="cls-1" d="M302.9,258.47l.33-.51Z"/><path class="cls-1" d="M304.31,256.23l.53-.84C304.67,255.65,304.5,255.94,304.31,256.23Z"/><path class="cls-1" d="M302.16,259.64l.35-.55Z"/><path class="cls-1" d="M303.62,257.33l.25-.39Z"/><path class="cls-1" d="M301.36,260.89c.13-.2.26-.39.38-.59C301.62,260.5,301.49,260.69,301.36,260.89Z"/><path class="cls-1" d="M298.67,265l.45-.67Z"/><path class="cls-1" d="M297.69,266.46l.47-.69Z"/><path class="cls-1" d="M300.51,262.2c.14-.21.28-.42.41-.63C300.79,261.78,300.65,262,300.51,262.2Z"/><path class="cls-1" d="M299.62,263.57l.42-.63Z"/><path class="cls-1" d="M304.94,255.24c.11-.19.22-.35.32-.52C305.16,254.89,305.05,255.05,304.94,255.24Z"/><path class="cls-1" d="M305.39,254.51l.37-.57Z"/><path class="cls-1" d="M291.13,275.55l.47-.61Z"/><path class="cls-1" d="M290,277c.14-.16.27-.33.4-.5C290.23,276.7,290.1,276.87,290,277Z"/><path class="cls-1" d="M292.29,274l.49-.66Z"/><path class="cls-1" d="M288.63,278.66l.16-.19Z"/><path class="cls-1" d="M293.42,272.52l.5-.69Z"/><path class="cls-1" d="M285.93,281.73l.48-.51Z"/><path class="cls-1" d="M287.19,280.33l.41-.46Z"/><path class="cls-1" d="M294.53,271l.5-.7Z"/><path class="cls-1" d="M295.62,269.47l.48-.7Z"/><path class="cls-1" d="M296.67,268l.48-.7Z"/><path class="cls-1" d="M292.78,273.38l.64-.86Z"/><path class="cls-1" d="M293.92,271.83l.61-.84Z"/><path class="cls-1" d="M295,270.29l.59-.82Z"/><path class="cls-1" d="M290.36,276.53c.26-.32.51-.65.77-1C290.87,275.88,290.62,276.21,290.36,276.53Z"/><path class="cls-1" d="M291.6,274.94l.69-.9Z"/><path class="cls-1" d="M298.16,265.77l.51-.77Z"/><path class="cls-1" d="M296.1,268.77l.57-.82Z"/><path class="cls-1" d="M297.15,267.25l.54-.79Z"/><path class="cls-1" d="M287.6,279.87l1-1.21Z"/><path class="cls-1" d="M288.79,278.47,290,277Z"/><path class="cls-1" d="M286.41,281.22l.78-.89Z"/><path class="cls-1" d="M300,262.94c.16-.25.32-.49.47-.74C300.36,262.45,300.2,262.69,300,262.94Z"/><path class="cls-1" d="M301.74,260.3l.42-.66Z"/><path class="cls-1" d="M302.51,259.09c.14-.21.26-.41.39-.62C302.77,258.68,302.65,258.88,302.51,259.09Z"/><path class="cls-1" d="M300.92,261.57c.15-.23.3-.45.44-.68C301.22,261.12,301.07,261.34,300.92,261.57Z"/><path class="cls-1" d="M303.23,258l.39-.63Z"/><path class="cls-1" d="M303.87,256.94l.44-.71Z"/><path class="cls-1" d="M305.26,254.72l.13-.21Z"/><path class="cls-1" d="M304.84,255.39l.1-.15Z"/><path class="cls-1" d="M299.12,264.33l.5-.76Z"/><path class="cls-1" d="M305.76,253.94l-.37.57-.13.21c-.1.17-.21.33-.32.52l-.1.15-.53.84-.44.71-.25.39-.39.63-.33.51c-.13.21-.25.41-.39.62l-.35.55-.42.66c-.12.2-.25.39-.38.59s-.29.45-.44.68-.27.42-.41.63-.31.49-.47.74l-.42.63-.5.76-.45.67-.51.77-.47.69-.54.79-.48.7-.57.82-.48.7-.59.82-.5.7-.61.84-.5.69-.64.86-.49.66-.69.9-.47.61c-.26.33-.51.66-.77,1s-.26.34-.4.5l-1.17,1.44-.16.19-1,1.21-.41.46-.78.89-.48.51-.71.77-.51.52-.68.69-.52.5-.66.63-.53.47-.65.56c-.17.16-.35.3-.53.44l-.62.5c-.18.14-.35.27-.53.39l-.61.44-.52.34-.6.37-.51.28-.59.3-.49.22-.57.22-.48.15c-.08,0-.15.06-.22.07a2.74,2.74,0,0,1-.28.05,3.76,3.76,0,0,1-2.94-.26l-.09,0a1,1,0,0,1-.2-.11l-.19-.09c-.12-.07-.22-.15-.32-.22l-.12-.09a3,3,0,0,1-.37-.34s0-.06-.07-.08l-.23-.31-.09-.15-.15-.28-.07-.18a2.47,2.47,0,0,1-.1-.29l-.06-.18c0-.11-.05-.22-.07-.33l0-.17c0-.14,0-.28,0-.43s0-.06,0-.1a5,5,0,0,1,0-.55v-.15l0-.42,0-.21c0-.13,0-.25.05-.38l0-.23c0-.13.05-.25.07-.38s0-.15.05-.23l.09-.42c0-.06,0-.13.05-.19l.15-.62c1.46-6.3,8.73-17.13,14.71-28.12l.17-.16c4.84-8.57,12.28-19.24,6.3-27.16-3.4-4.36-7.11-6.14-11.15-6.14-.49,0-1,0-1.46.07l-.39,0c-.41,0-.82.1-1.23.17l-.24,0c-.48.09-1,.2-1.42.32l-.36.1c-.39.11-.77.23-1.15.36l-.34.11c-.46.17-.93.35-1.39.55l-.28.12c-.39.17-.77.35-1.16.54l-.37.19c-.46.24-.92.48-1.37.75l-.11.06c-.42.25-.85.51-1.27.78l-.36.24c-.4.27-.8.54-1.19.82l-.17.12c-.45.32-.88.65-1.32,1l-.34.27-1.06.87-.29.24a67.43,67.43,0,0,0-6.82,6.81,11.41,11.41,0,0,0-2.1-8.41c-3.23-4.36-7.11-6.14-11-6.14q-.69,0-1.38.06l-.36,0c-.41,0-.82.09-1.23.16l-.14,0c-.45.08-.89.18-1.34.29l-.34.09c-.39.1-.77.21-1.15.33l-.21.07c-.44.14-.87.31-1.31.48l-.32.13-1.09.49-.25.11c-.43.21-.85.43-1.28.66l-.29.16-1.05.61a43.19,43.19,0,0,0-4.26,2.94,10,10,0,0,0-2.52-3.6c-.21-.2-.44-.39-.67-.58l-.22-.17c-.16-.13-.33-.25-.5-.37l-.26-.18c-.18-.12-.36-.22-.54-.33l-.24-.14c-.26-.15-.53-.29-.79-.41s-.55-.23-.82-.33l-.26-.08-.58-.17-.29-.07c-.2-.05-.39-.08-.59-.11l-.26,0a7.89,7.89,0,0,0-.84-.05c-2.42,0-5.65,1.61-8.4,4.85-5.66,6.95-11.8,17.45-17.14,28.45-8.56,17.78-14.38,36.85-11,43.15a7.24,7.24,0,0,0,6.47,4.37,10.38,10.38,0,0,0,1.08-.08,5.56,5.56,0,0,0,4.75-4.78.5.5,0,0,0,0-.12c.06-.43.13-.88.22-1.35a2.21,2.21,0,0,1,.05-.25c.09-.49.19-1,.31-1.52v0c.12-.53.25-1.09.39-1.66,0-.09.05-.19.08-.29.14-.55.29-1.11.45-1.69,0-.11.06-.23.1-.34.16-.6.34-1.2.53-1.83a1.54,1.54,0,0,0,.05-.17l.58-1.85.09-.28c.21-.64.43-1.3.66-2l.14-.41.71-2,.12-.33.77-2.08.05-.14c.28-.73.56-1.46.85-2.2,0-.13.1-.27.16-.4.28-.72.57-1.45.87-2.18,0-.13.11-.26.16-.4.31-.76.63-1.52.95-2.29l0-.08c.32-.76.64-1.52,1-2.27,0-.13.11-.25.16-.37.33-.75.66-1.5,1-2.25.06-.15.13-.3.2-.44.34-.77.69-1.53,1-2.29l.12-.26,1.05-2.22.09-.19h0l.09-.2.1-.18,0,0,.48-.83.41-.7.59-1c.12-.2.24-.41.37-.61l.67-1.07.28-.45c.32-.5.64-1,1-1.46,11.48-18.11,21.82-24.9,27.15-24.9,8.57,0,1.3,11.16-6.78,24.9,0,.16-.17.32-.17.48-5.49,9.21-17.29,33.62-12.44,42.67,1.45,2.59,3.72,4.37,6.46,4.37a10.92,10.92,0,0,0,1.15-.08,5.52,5.52,0,0,0,4.74-4.64c0-.18.06-.38.1-.57l.09-.55c.07-.36.15-.73.23-1.11,0-.16.07-.32.1-.48.13-.55.26-1.11.41-1.69l.07-.25c.13-.5.27-1,.41-1.53l.18-.63.36-1.23c.08-.24.15-.48.23-.72.12-.4.25-.8.38-1.2.07-.24.15-.49.23-.73l.42-1.28.23-.66c.17-.52.35-1,.53-1.54l.14-.41.69-1.93.2-.54.51-1.39.26-.69c.15-.41.3-.81.46-1.21.09-.23.17-.47.26-.7l.45-1.16c.08-.22.17-.43.25-.64.16-.41.31-.81.47-1.2l.2-.51.64-1.61c2.59-6.14,5.49-10.66,8.73-16.48v-.16c.32-.49.64-1.14,1-1.62C260,235.51,270,229,275.21,229c8.57,0,1.3,11.16-6.79,24.9-7.76,13.25-16,28.77-11.63,39.27,2.26,5,5.65,7.76,11.15,8.25h.65c17.61-.49,37-37,42-45.91a3.64,3.64,0,0,0,.49-1.61C311.1,251.51,307.38,251,305.76,253.94Z"/><path class="cls-1" d="M536.08,226.78a11.41,11.41,0,0,1,2.1,8.41,67.43,67.43,0,0,1,6.82-6.81l.29-.24.8-.66-.13.11c-1-3.56-5.34-7-9.38-7a9,9,0,0,0-5,1.86A16.54,16.54,0,0,1,536.08,226.78Z"/><path class="cls-1" d="M552.91,223l.52-.25Z"/><path class="cls-1" d="M549.83,224.78c.31-.21.63-.4.94-.59C550.46,224.38,550.14,224.57,549.83,224.78Z"/><path class="cls-1" d="M573.42,226.78c6,7.92-1.45,18.59-6.3,27.16l-.16.16c-6,11-13.26,21.82-14.71,28.12-.06.21-.11.41-.16.62s0,.13-.05.19l-.09.42c0,.08,0,.15-.05.23s0,.25-.07.38l0,.23c0,.13,0,.25,0,.38l0,.21c0,.14,0,.28,0,.42a.76.76,0,0,0,0,.15,5,5,0,0,0,0,.55s0,.07,0,.1,0,.29,0,.43a1,1,0,0,0,0,.17l.06.33.06.18a2.47,2.47,0,0,0,.1.29l.07.18.15.28.09.15a3.24,3.24,0,0,0,.24.31l.06.08a3,3,0,0,0,.37.34l.12.09.32.22.19.09.2.11.09,0a5.92,5.92,0,0,0,1.58.44h0c-4.2-.65-4-4-3.23-7.6,1.46-6.3,8.73-17.13,14.87-28.12v-.16c4.85-8.57,12.29-19.24,6.31-27.16-3.24-4.36-7.12-6.14-11-6.14h-.09C566.36,220.67,570.05,222.45,573.42,226.78Z"/><path class="cls-1" d="M551.57,223.74l.61-.34Z"/><path class="cls-1" d="M558.1,221.14l.1,0Z"/><path class="cls-1" d="M554.81,222.18l.35-.13Z"/><path class="cls-1" d="M561.1,220.69l.87,0Z"/><path class="cls-1" d="M555.58,289.81a3.85,3.85,0,0,0,.66-.06A5.06,5.06,0,0,1,555.58,289.81Z"/><path class="cls-1" d="M557.29,289.54l-.38.09.21,0Z"/><path class="cls-1" d="M546.89,226.85l.36-.27Z"/><path class="cls-1" d="M548.58,225.61l.54-.37Z"/><path class="cls-1" d="M530.75,252.32c-.32.48-.65,1.13-1,1.62v0l0,0c11.46-18.1,21.8-24.89,27.14-24.9h0C551.76,229,541.74,235.51,530.75,252.32Z"/><path class="cls-1" d="M590.77,251.94a2,2,0,0,1,2.05,2,3.52,3.52,0,0,1-.49,1.61c-5,8.89-24.41,45.42-42,45.91h0c17.62-.49,37-37,42-45.91a3.61,3.61,0,0,0,.48-1.61A2,2,0,0,0,590.77,251.94Z"/><path class="cls-1" d="M512.81,253.94c5.51-9.38,10.65-17.55,10.63-21.79a180,180,0,0,0-12.39,21.79c-4.7,9.92-8.63,20.24-10.6,28.52,2.7-10.26,8.71-22.2,12.2-28C512.65,254.26,512.81,254.1,512.81,253.94Z"/><path class="cls-1" d="M546.69,227l-.34.27-.26.21.8-.63Z"/><path class="cls-1" d="M552.86,223.05l-.38.19-.3.16.73-.37Z"/><path class="cls-1" d="M549.74,224.83l-.37.24a2.2,2.2,0,0,1-.25.17l.71-.46Z"/><path class="cls-1" d="M551.11,224l-.11.06-.23.14.8-.45Z"/><path class="cls-1" d="M548.18,225.89,548,226c-.26.18-.51.38-.76.57l1.33-1Z"/><path class="cls-1" d="M587.5,253.94a3.78,3.78,0,0,1,3.27-2,3.59,3.59,0,0,0-3.29,2c-.11.16-.23.36-.36.57s-.1.14-.14.21-.21.33-.32.52l-.1.15c-.16.27-.34.54-.53.84l-.44.71c-.08.13-.16.26-.25.39L585,258l-.33.51c-.12.21-.25.41-.39.62l-.35.55c-.14.22-.27.44-.42.66s-.25.39-.38.59-.29.45-.44.68l-.4.63-.48.74-.42.63-.5.76-.45.67-.51.77-.47.69-.54.79-.48.7c-.18.27-.37.55-.57.82l-.48.7-.59.82-.5.7-.61.84-.5.69-.64.86L574,274l-.69.9-.47.61c-.25.33-.51.66-.77,1s-.26.34-.4.5l-1.17,1.44-.16.19c-.34.41-.69.82-1,1.21l-.41.46-.78.89-.48.51c-.24.26-.47.52-.71.77l-.51.52c-.23.23-.45.47-.68.69l-.52.5-.66.63-.53.47-.64.56c-.18.16-.36.3-.53.44l-.63.5c-.18.14-.35.27-.53.39l-.61.44-.52.34-.6.37-.51.28-.58.3-.5.22-.57.22-.48.15-.05,0C567.94,286.55,584.29,259.13,587.5,253.94Z"/><path class="cls-1" d="M555.58,289.81h0Z"/><path class="cls-1" d="M500.45,282.46a33.3,33.3,0,0,0-1.34,10.43A39.92,39.92,0,0,1,500.45,282.46Z"/><path class="cls-1" d="M538.68,293.21c-4.52-10.5,3.88-26,11.48-39.27C558.24,240.2,565.52,229,557,229h0c8.56,0,1.28,11.16-6.79,24.9-7.76,13.25-16,28.77-11.64,39.27,2.26,5,5.65,7.76,11.15,8.25h.18C544.34,301,540.79,298.22,538.68,293.21Z"/><path class="cls-1" d="M554.29,222.39l-.28.12-.58.27,1.38-.6C554.64,222.25,554.46,222.31,554.29,222.39Z"/><path class="cls-1" d="M560.81,220.71l-.39,0c-.41,0-.82.1-1.23.17l-.24,0-.75.17a20.08,20.08,0,0,1,2.9-.43Z"/><path class="cls-1" d="M556.84,289.64c-.2.05-.4.08-.6.11a5.57,5.57,0,0,0,.67-.12Z"/><path class="cls-1" d="M557.53,221.27l-.36.1c-.38.11-.77.23-1.15.36l-.33.11c-.18.06-.35.14-.53.21a22.63,22.63,0,0,1,2.94-.91Z"/><path class="cls-1" d="M562.27,220.64h0Z"/><path class="cls-1" d="M592.33,255.55a3.52,3.52,0,0,0,.49-1.61,2,2,0,0,0-2.05-2,3.78,3.78,0,0,0-3.27,2c-3.21,5.19-19.56,32.61-30.21,35.6l-.17,0-.21,0a5.57,5.57,0,0,1-.67.12,3.85,3.85,0,0,1-.66.06h-.1a5.92,5.92,0,0,1-1.58-.44l-.09,0-.2-.11-.19-.09-.32-.22-.12-.09a3,3,0,0,1-.37-.34l-.06-.08a3.24,3.24,0,0,1-.24-.31l-.09-.15-.15-.28-.07-.18a2.47,2.47,0,0,1-.1-.29l-.06-.18-.06-.33a1,1,0,0,1,0-.17c0-.14,0-.28,0-.43s0-.06,0-.1a5,5,0,0,1,0-.55.76.76,0,0,1,0-.15c0-.14,0-.28,0-.42l0-.21c0-.13,0-.25,0-.38l0-.23c0-.13,0-.25.07-.38s0-.15.05-.23L552,283c0-.06,0-.13.05-.19s.1-.41.16-.62c1.45-6.3,8.72-17.13,14.71-28.12l.16-.16c4.85-8.57,12.28-19.24,6.3-27.16-3.37-4.33-7.06-6.11-11.06-6.14H562l-.87,0a20.08,20.08,0,0,0-2.9.43l-.1,0a22.63,22.63,0,0,0-2.94.91l-.35.13-1.38.6-.52.25-.73.37-.61.34-.8.45c-.31.19-.63.38-.94.59l-.71.46-.54.37-1.33,1-.36.27-.8.63-.8.66-.29.24a67.43,67.43,0,0,0-6.82,6.81,11.41,11.41,0,0,0-2.1-8.41,16.54,16.54,0,0,0-4.51-4.28,17.38,17.38,0,0,0-3.23,3c-1.59,1.95-3.24,4.2-4.9,6.66,0,4.24-5.12,12.41-10.63,21.79,0,.16-.16.32-.16.48-3.49,5.84-9.5,17.78-12.2,28a39.92,39.92,0,0,0-1.34,10.43,10.43,10.43,0,0,0,1.09,4.2c1.44,2.57,3.68,4.33,6.4,4.36a9.5,9.5,0,0,0,1.5-.13,5.51,5.51,0,0,0,4.15-3.49c.63-6.56,4.84-18.95,10.59-31.61A138.26,138.26,0,0,1,529.78,254v0c.32-.49.65-1.14,1-1.62,11-16.81,21-23.28,26.18-23.28h0c8.57,0,1.29,11.16-6.79,24.9-7.6,13.25-16,28.77-11.48,39.27,2.11,5,5.66,7.76,11.16,8.25h.47C567.92,301,587.32,264.44,592.33,255.55Z"/><rect class="cls-1" x="629.83" y="325.72" width="86.74" height="17.5" rx="5.29" transform="translate(1346.4 668.94) rotate(180)"/><rect class="cls-1" x="629.83" y="353.31" width="67.58" height="17.5" rx="5.29" transform="translate(1327.24 724.12) rotate(180)"/><rect class="cls-1" x="629.83" y="380.9" width="47.92" height="17.5" rx="5.29" transform="translate(1307.59 779.3) rotate(180)"/><rect class="cls-1" x="302.1" y="326.7" width="306.58" height="116.79" rx="16.62"/><path class="cls-2" d="M411,415.48q-4.55,5-13.3,8a57.77,57.77,0,0,1-19.19,3.05q-16,0-25.65-9.69t-10.27-27l-.05-7a47.66,47.66,0,0,1,4.26-20.8A31.36,31.36,0,0,1,359,348.43a34.82,34.82,0,0,1,18.38-4.8q15.25,0,23.71,6.9t9.85,20.58H392c-.68-4.5-2.13-7.72-4.38-9.64s-5.42-2.88-9.54-2.88a12.9,12.9,0,0,0-11.45,6.21q-4,6.19-4.09,17.72v4.88q0,12.08,4.18,18.14t13.16,6.06q7.68,0,11.44-3.37V395.71H377.6V382.36H411Z"/><path class="cls-2" d="M461,379.81l15-35h21.27L471,396.48v29H451v-29L424.72,344.8h21.15Z"/><path class="cls-2" d="M562.52,391.22h-31V410.5h36.59v14.95H511.85V344.8h56.39v15h-36.7v17h31Z"/><path class="cls-1" d="M192.45,253.94c-3.72,5.65-18.75,30.06-40.25,47.52C139.27,312,123.92,320,107.43,320c-10.35,0-16.81-7.75-18.91-18.58-2.59-13.9,1.94-33,14.38-47.52,11.75-13.73,31-25.31,49.73-21,2,.47,4.9,2.09,7,1.59a2.13,2.13,0,0,0,1.5-1.17,3.12,3.12,0,0,0-.43-2.56c-2.2-4.27-5.6-7.43-9.48-10.16a27.78,27.78,0,0,0-8.56-4.2c-17.14-4.53,14.71-51.4,40.57-51.4,23.43,0,3.23,41.21-14.07,41.21a6,6,0,0,1-1-.08,2.65,2.65,0,0,1-.3-.06c-.2-.05-.39-.09-.58-.15l-.3-.13a3.29,3.29,0,0,1-.46-.23l-.28-.18-.39-.3-.24-.23c-.11-.12-.22-.24-.32-.37l-.2-.27a3.91,3.91,0,0,1-.26-.44c-.06-.1-.11-.2-.16-.3a4.48,4.48,0,0,1-.21-.55,2.33,2.33,0,0,1-.11-.28c-.08-.27-.14-.54-.2-.82a.44.44,0,0,1,0-.1c-.06-.32-.1-.66-.13-1,0-.11,0-.22,0-.33s0-.49,0-.74,0-.29,0-.43,0-.46,0-.7,0-.32.05-.48.06-.47.1-.7.05-.34.08-.51l.15-.72.12-.52c.06-.25.13-.5.21-.76l.14-.5c.09-.28.18-.56.28-.83s.1-.31.16-.46c.13-.35.27-.71.42-1.06l.09-.23c.18-.44.38-.87.59-1.3.07-.13.14-.25.2-.38.15-.3.31-.61.48-.91l.27-.49.47-.79.33-.51c.16-.25.33-.5.5-.75l.36-.51.53-.72.39-.49c.19-.24.39-.47.59-.71l.4-.46.67-.71.39-.4c.28-.28.57-.54.86-.81l.26-.24c.38-.33.77-.66,1.18-1l.32-.23c.3-.23.61-.45.92-.66l.48-.3c.27-.17.54-.34.82-.5s.36-.2.55-.29.54-.28.82-.42l.58-.26c.14-.06.27-.13.42-.18a2.16,2.16,0,0,0-.31-4.1l-.43-.07-.37,0-.56,0-.35,0h-.89c-.3,0-.6,0-.89.08s-.6.1-.89.16l-.29.07c-.2,0-.4.09-.59.15l-.34.11-.54.17-.35.14-.51.21-.36.16-.5.24-.35.18-.5.28-.34.2-.5.32-.32.21c-.19.12-.37.25-.55.39l-.26.18c-.27.2-.53.41-.79.63s-.52.44-.77.67a2.73,2.73,0,0,0-.25.23q-.25.22-.51.48l-.28.29-.45.46-.3.32-.42.46-.29.35-.4.48-.29.36-.39.5-.26.36c-.14.18-.26.36-.39.54l-.25.36c-.14.2-.27.4-.4.61l-.2.3c-.2.31-.39.63-.58,1s-.37.64-.55,1c-.06.11-.11.22-.17.32l-.34.66-.2.4-.29.6-.19.42c-.09.2-.18.4-.26.6s-.13.29-.18.43-.17.4-.24.6-.12.29-.17.43-.15.41-.22.61l-.15.43-.21.64-.12.41c-.07.23-.14.46-.2.69s-.07.23-.1.35c-.09.34-.17.68-.25,1v.05c-.07.34-.14.68-.2,1,0,.11,0,.22-.06.33s-.08.47-.11.7l-.06.41c0,.21,0,.42-.07.62s0,.29,0,.43,0,.4,0,.6,0,.29,0,.43,0,.39,0,.59v.42c0,.2,0,.39,0,.58s0,.28,0,.41,0,.4,0,.6,0,.25,0,.38,0,.42.08.64,0,.21,0,.31q.07.48.18.93t.24.9a2.46,2.46,0,0,0,.09.29c.06.2.12.4.19.59l.13.33c.07.18.14.35.22.52s.1.23.16.34.15.32.24.48l.18.33.27.45.21.32c.1.15.21.29.31.43l.23.3.36.42.24.27c.14.15.29.29.44.43l.22.22c.23.2.47.4.73.59a8.43,8.43,0,0,0,.78.55l.28.17c.19.11.38.23.58.33l.36.18.56.27.41.16.58.23.44.15c.21.06.42.13.63.18l.47.13.67.15.49.1.74.12.49.06c.28,0,.58.06.87.09l.43,0c.45,0,.91.05,1.38.05,20.2,0,38.79-30.87,33.78-49.29-2.1-7.76-8.4-13.26-20.37-13.26-13.73,0-26.5,5.34-36.85,13.26-.61.46-1.22.93-1.82,1.41l-.59.48-1.18,1-.68.6-1,.91-.71.66-1,.89-.72.7c-.29.29-.6.59-.89.89l-.7.72c-.28.3-.57.6-.84.9l-.69.75-.8.9-.66.77-.77.91-.63.78-.73.93-.6.79c-.23.31-.47.62-.69.94s-.39.53-.57.79-.45.64-.66,1l-.54.79c-.21.32-.42.64-.62,1l-.51.79-.58,1-.47.79c-.19.33-.37.66-.55,1s-.29.51-.43.77l-.53,1c-.12.25-.25.5-.37.74s-.35.73-.51,1.09l-.32.68-.52,1.24c-.08.18-.16.35-.23.53-.23.59-.45,1.17-.66,1.75l-.08.24c-.18.5-.35,1-.5,1.5-.07.21-.12.41-.18.61-.11.38-.22.75-.32,1.12s-.11.46-.17.69-.17.68-.24,1-.1.48-.14.73-.13.64-.18.95-.08.49-.11.74-.09.61-.12.92-.05.49-.07.73-.06.6-.08.89,0,.48,0,.72,0,.58,0,.87,0,.48,0,.71,0,.57,0,.84,0,.47,0,.7.06.55.09.81.07.46.1.68l.15.79c0,.22.09.44.14.66l.21.76c.06.21.12.42.19.63s.17.5.26.74.15.41.23.6a16,16,0,0,0,1.24,2.4c-1.35.4-2.66.8-4,1.23l-.25.09q-.75.25-1.5.54l-.47.18c-.58.22-1.16.45-1.74.71-15.52,6.63-28,19.56-35.89,33.3-8.89,15.51-12.6,32.81-10.67,47.52,2.43,18.75,13.74,33.13,34.6,33.13,22.62,0,43-15,59.64-33.13,14.38-15.68,25.7-33.79,32.65-46.07a2.61,2.61,0,0,0,.48-1.45C198,251.51,194.23,250.86,192.45,253.94Z"/></svg>