<svg id="Capa_1" data-name="Capa 1" xmlns="http://www.w3.org/2000/svg" viewBox="0 0 841.89 595.28"><title>Emprende GYE</title><path d="M397.75,194.94a9.2,9.2,0,0,1,4.36,4.85c1.29,3.39.49,6.3-2.26,13.57,5,2.43,11.47,4.53,16.65,7.28a2.62,2.62,0,0,1,1.13.64c10.18,5.82,1,23.28-4.69,32.66-.65,1-1.13,1.93-1.62,2.74-5.81,10-12,19.72-13.41,25.54-.81,3.4-1,6.95,3.39,7.6,10.35,0,28.45-30.39,31.85-35.88,1.77-2.91,5.33-2.43,5.33,0a3.52,3.52,0,0,1-.49,1.61c-5,8.89-24.24,45.42-42,45.91h-.49c-5.49-.49-9.05-3.24-11.15-8.25-4.52-10.5,3.88-26.34,11.48-39.27,2.26-3.72,4.36-7.12,6-10.19,3.72-6.3,5.17-11,.32-14.22a39.35,39.35,0,0,0-7.76-4c-4,7.11-9.86,18.59-15.51,28.45a5.84,5.84,0,0,0-1,1.61c-3.08,5-6.63,1.46-4.85-1.61,6.46-10.83,12.6-23.77,16.32-30.72a14.57,14.57,0,0,1-4.69-2.58c-10.34-8.08-4.52-25.7,6.47-26.51C393.22,194,396,194,397.75,194.94ZM395,198.17c-3.72-1.94-6.14,2.59-6.14,7.27,0,3.08,1.45,3.08,6.46,5.82,2.1-5.33,2.43-8.72,1.62-10.83A3.89,3.89,0,0,0,395,198.17Z" fill="#16244b"/><path d="M483.25,253.94c-10.5,12.76-26.67,21.82-36.2,10.34a72.93,72.93,0,0,0-3.4,11.8c-1.77,9.37.33,16.32,7.11,16.32,18.75,0,37.83-22.46,48.33-38.46,1.78-2.91,5.5-2.43,5.34,0a3.52,3.52,0,0,1-.49,1.61c-17.61,30.55-40.08,45.91-58.19,45.91-23.27,0-24.08-25.22-12.6-47.52,8.4-16.49,25.21-33.3,44.93-33.3C499.09,220.64,494.73,239.71,483.25,253.94Zm-30.87.16a30.17,30.17,0,0,0-3.23,6c4.52,4.52,12.77.32,19.88-6.14,10.18-9.22,18.27-23.28,10.34-23.44-8.89.48-22,16.65-26.83,23.44Z" fill="#16244b"/><path d="M683.12,165.49l-.09,0,.23.08Z" fill="#16244b"/><path d="M683.26,165.54l-.23-.08-.24-.07-.54-.14-.26-.05-.54-.09-.24,0a6.45,6.45,0,0,0-.76,0c-3.23,0-6.46,2.1-8.73,5-.8,1-1.61,1.94-2.42,3.07-9.38,12.28-23.92,33.46-33,47.52-2.75,4.2-5,7.76-6.47,10.18a13.9,13.9,0,0,0-5-8l-.23-.16a10,10,0,0,0-2.1-1.15l-.29-.12A11.42,11.42,0,0,0,621,221a13.33,13.33,0,0,0-1.37-.26l-.36,0a14.79,14.79,0,0,0-1.52-.09h-.16c-17,0-32.65,15.68-42,33.3-11.48,21.49-13.25,45.9,4,47.52.65,0,1.29.16,1.94.16.49,0,.81-.16,1.29-.16.32,0,.64-.1,1-.16l.31-.08.63-.15.37-.12a5.22,5.22,0,0,0,.56-.18l.4-.15c.17-.07.35-.13.52-.21l.41-.18.51-.24.4-.22a4.67,4.67,0,0,0,.49-.27,3.38,3.38,0,0,0,.41-.24l.48-.29.4-.27.48-.32.4-.29.47-.35.39-.3.46-.38.39-.32.46-.41.37-.33.46-.43.36-.34c.16-.15.31-.3.46-.46l.35-.34c.16-.16.31-.33.47-.5l.32-.33L596,293l.27-.29c4.49-5,8.28-11.11,11.1-15.05A25.33,25.33,0,0,0,609,294.25h0q.19.42.42.81l.15.26.31.53.19.29.32.46.21.29.33.42.23.28c.12.14.25.27.37.4l.24.25a5.6,5.6,0,0,0,.43.41c.07.06.13.13.21.19a8.49,8.49,0,0,0,.67.55h0c.24.17.48.33.73.48l.24.15.53.28a3,3,0,0,0,.31.15l.51.22.34.13.53.17.36.11.56.13.37.07.64.08.33,0c.33,0,.67,0,1,0,17.94,0,38-37,43.15-45.91a3.52,3.52,0,0,0,.49-1.61c.16-2.43-3.56-2.91-5.17,0-3.72,5.49-22.15,35.88-32.49,35.88-6.63,0-.65-16.33,9.53-35.88,2.27-4.37,4.69-8.89,7.28-13.42,2.58-4.69,7.11-11.8,12.28-19.88l1.72-2.61c.1-.15.2-.29.29-.44.57-.84,1.14-1.7,1.71-2.56.11-.15.21-.31.32-.47l1.79-2.66.12-.17c.58-.86,1.17-1.72,1.75-2.59l.3-.43,1.79-2.6.36-.52c.6-.87,1.21-1.75,1.82-2.61l.23-.34,1.77-2.51.22-.3c.61-.86,1.21-1.71,1.82-2.55l.37-.51,1.79-2.47.28-.38c.59-.8,1.17-1.59,1.75-2.36l.15-.21,1.78-2.36.33-.44,1.71-2.21.3-.39c.57-.73,1.14-1.45,1.7-2.14l0-.05c.56-.7,1.11-1.37,1.65-2l.3-.36c.52-.63,1-1.23,1.53-1.81l.29-.34c.51-.59,1-1.16,1.51-1.7l0,0A7.4,7.4,0,0,0,683.26,165.54Zm-63.58,81.93a57.57,57.57,0,0,1-3.24,6.47C608,269.29,587.19,302.75,584.6,284c-1.13-7.6,3.88-19.56,10.35-30.06,7.59-11.8,17.13-21.66,22.47-21C626.14,233.89,620.65,244.24,619.68,247.47Z" fill="#16244b"/><polygon points="608.95 294.25 608.96 294.25 608.95 294.25 608.95 294.25" fill="#16244b"/><path d="M708.09,253.94c-10.5,12.76-26.67,21.82-36.2,10.34a72.93,72.93,0,0,0-3.4,11.8c-1.77,9.37.33,16.32,7.12,16.32,18.75,0,37.82-22.46,48.32-38.46,1.78-2.91,5.5-2.43,5.34,0a3.52,3.52,0,0,1-.49,1.61c-17.61,30.55-40.08,45.91-58.19,45.91-23.27,0-24.08-25.22-12.6-47.52,8.4-16.49,25.21-33.3,44.93-33.3C723.93,220.64,719.57,239.71,708.09,253.94Zm-30.87.16a30.17,30.17,0,0,0-3.23,6c4.52,4.52,12.77.32,19.88-6.14,10.18-9.22,18.27-23.28,10.35-23.44-8.89.48-22,16.65-26.84,23.44Z" fill="#16244b"/><path d="M323.76,221.25s5.53,1.26,6.53,10.19L321,242.35l-12.7,1.13,5.05-11.68,9.69-10.55" fill="#16244b"/><path d="M315.36,285.25l-.06.06Z" fill="none"/><path d="M315.65,285c1-.84,1.92-1.76,2.89-2.78l0-.06C317.14,283.63,316.16,284.53,315.65,285Z" fill="none"/><path d="M326.3,272.68c1.35-1.85,2.63-3.8,3.85-5.79-1.38,2.14-2.7,4.05-3.95,5.77Z" fill="#16244b"/><path d="M373,253.94c-5.82,8.56-13.74,18.74-23,23.76-4.52,2.42-7.76,3.23-10.5,2.91a91.05,91.05,0,0,0,13.09-26.67c5.33-17.62,3.88-33.3-7.92-33.3-8.41,0-17.62,9.37-25.86,18.75a124.36,124.36,0,0,1,9.86-12.29,8.45,8.45,0,0,0-7.44-6.46h-1.61a14.42,14.42,0,0,0-9.22,5.82c-2.91,4.68-9.21,14.87-16.65,27.48-9.21,15.84-18.91,31.51-27.8,47.52-8.24,15-15,28.93-17,38.79-1.29,6.79-1.45,16.81,7,16.81,4.12,0,9.2-1.48,10.41-5.89,2.22-8.11,3.14-16.11,6.29-24.17,3.41-8.71,7.63-17.07,11.59-25.54,3.07-6.47,6.14-13.1,8.89-19.24-.16,10.51,3.55,18.27,12,19.24.48,0,1,.16,1.61.16s1.46-.16,2.11-.16c8.56-.65,16.32-5.18,22.95-11.8,22.95-.16,38-19.4,46.06-34.11a3.52,3.52,0,0,0,.49-1.61C378.51,251.35,374.79,250.7,373,253.94Zm-42.77,12.8,0-.05-.14.2a94.48,94.48,0,0,1-10.21,13.74c-3,3.36-7.75,9.26-12.87,8.7-10.35-1.13-3.07-19.88,7.11-35.39,10.34-15.68,23.92-28,25.7-15.68.48,4.2-.65,9.69-3.07,15.68A92.3,92.3,0,0,1,330.25,266.74Z" fill="#16244b"/><path d="M330.29,266.69l0,.05-.1.15Z" fill="#16244b"/><path d="M783.61,243.43c-.2-2.71-.46-5.9-.84-9.09-.32-2.67-.74-5.85-1.37-9.16l0-.13a5.22,5.22,0,0,0-4.89-4.26A51.53,51.53,0,0,0,763,222.11l-3.1.74-2,.59-1,.29c-1.09.31-2.12.67-3.13,1L753,225c-.73.25-1.47.5-2.23.82-3.41,1.3-7,2.91-11.41,5.08l-.39.2-.33.3a3.2,3.2,0,0,0-.73,4c1.46,2.6,3.78,2,13.56-.74l2-.55a83.53,83.53,0,0,1,11.25-2.4l.7-.1c1.26-.17,4.49-.6,5.63-.28a8.81,8.81,0,0,1,.5,3.43v.11c.07,2.95.14,6,.13,9,0,6.57-.22,12-.65,17.16a168.57,168.57,0,0,1-5.93,33.44,121.08,121.08,0,0,1-5.6,15.69c-.22.49-.43,1-.64,1.47-.35.82-.68,1.59-1,2.34l-1.88,3.8c-.37.74-.79,1.47-1.23,2.25l-.76,1.35-1,1.77-1.13,1.79a98,98,0,0,1-21.53,24.57L728.44,351a3.94,3.94,0,0,0-1.26,4.22l.72,2.31c.13.41.29.95.41,1.42l.43,1.62c.31,1.25.55,2.28.75,3.27.47,2.21.87,4.43,1.18,6.6a76.4,76.4,0,0,1,.74,13.14,45,45,0,0,1-2,12.36,31.52,31.52,0,0,1-2.26,5.31l-.45.76a15.75,15.75,0,0,1-1,1.6c-.14.18-.27.37-.4.55s-.28.4-.4.55l-1,1.19-.09.11a10.38,10.38,0,0,1-.82.82l-1,1-1.27,1a6.88,6.88,0,0,1-.81.6l-.1.06L719,410a15.36,15.36,0,0,1-1.76,1.05l-16.17,7.92c-5.63,2.74-11.33,5.58-16.83,8.33l-.35.17c.13-.5.25-1,.32-1.42.69-3.87,1.51-7.62,2.44-11.21.16-.71.36-1.41.56-2.11l.36-1.28c.18-.64.36-1.28.59-2l.88-2.7,1-2.62c.62-1.61,2.1-5.36-1-6.78s-5,2.14-5.84,3.74l-1.33,2.66-1.24,2.79c-.35.76-.64,1.5-.92,2.21l-.5,1.26c-.32.78-.62,1.56-.87,2.27-1.49,4-2.66,8.12-3.61,11.62-.49,1.8-1,3.73-1.47,5.9-.43,1.89-.88,3.92-1.23,6.05l-.4,2.37a4,4,0,0,0,3.9,4.6,3.88,3.88,0,0,0,1.53-.31l2.36-1,9.53-4c5.66-2.35,11.51-4.78,17.24-7.23l13.34-5.7,1.75-.76,1.76-.82a28.91,28.91,0,0,0,3.23-1.73l.51-.3a20.22,20.22,0,0,0,2-1.34l1.64-1.2,1.75-1.53a18.13,18.13,0,0,0,1.69-1.63l1.43-1.54c.35-.4.68-.81,1-1.23.12-.17.25-.33.34-.45a25.59,25.59,0,0,0,2-2.85c.16-.25.33-.51.45-.71l.16-.25a42.16,42.16,0,0,0,3.6-7.75A58.71,58.71,0,0,0,746,384.31a88.77,88.77,0,0,0-.63-15.79c-.34-2.67-.76-5.25-1.26-7.69-.13-.66-.27-1.33-.42-2-.07-.29-.14-.58-.23-.88l1.59-1.37,1.82-1.75,1.12-1.08c.75-.73,1.5-1.45,2.22-2.2l3.23-3.58a107.59,107.59,0,0,0,11.14-15.28l1.2-2,1.19-2.19c.24-.46.49-.91.74-1.37.49-.89,1-1.81,1.47-2.8l2-4.13c.47-1,.87-1.94,1.25-2.88l.63-1.5a138.07,138.07,0,0,0,5.85-17.7A168,168,0,0,0,782.44,280c.79-6,1.29-12.12,1.49-18.3C784.12,255.09,784,249.11,783.61,243.43Z" fill="#16244b"/><path d="M291,258.47c.11-.17.22-.34.32-.51C291.17,258.13,291.06,258.3,291,258.47Z" fill="#16244b"/><path d="M292.36,256.23l.53-.84C292.72,255.65,292.55,255.94,292.36,256.23Z" fill="#16244b"/><path d="M290.21,259.64l.35-.55Z" fill="#16244b"/><path d="M291.67,257.33l.25-.39Z" fill="#16244b"/><path d="M289.41,260.89c.13-.2.26-.39.38-.59C289.67,260.5,289.54,260.69,289.41,260.89Z" fill="#16244b"/><path d="M286.72,265l.45-.67Z" fill="#16244b"/><path d="M285.74,266.46l.47-.69Z" fill="#16244b"/><path d="M288.56,262.2c.14-.21.28-.42.41-.63C288.84,261.78,288.7,262,288.56,262.2Z" fill="#16244b"/><path d="M287.67,263.57l.42-.63Z" fill="#16244b"/><path d="M293,255.24c.11-.19.22-.35.32-.52C293.21,254.89,293.1,255.05,293,255.24Z" fill="#16244b"/><path d="M293.44,254.51l.37-.57Z" fill="#16244b"/><path d="M279.18,275.55l.47-.61Z" fill="#16244b"/><path d="M278,277c.14-.16.27-.33.4-.5Z" fill="#16244b"/><path d="M280.34,274l.49-.66Z" fill="#16244b"/><path d="M276.67,278.66l.17-.19Z" fill="#16244b"/><path d="M281.47,272.52l.5-.69Z" fill="#16244b"/><path d="M274,281.73l.48-.51Z" fill="#16244b"/><path d="M275.24,280.33l.41-.46Z" fill="#16244b"/><path d="M282.58,271l.5-.7Z" fill="#16244b"/><path d="M283.67,269.47l.48-.7Z" fill="#16244b"/><path d="M284.72,268l.48-.7Z" fill="#16244b"/><path d="M280.83,273.38l.64-.86Z" fill="#16244b"/><path d="M282,271.83l.61-.84Z" fill="#16244b"/><path d="M283.08,270.29l.59-.82Z" fill="#16244b"/><path d="M278.41,276.53c.26-.32.51-.65.77-1C278.92,275.88,278.67,276.21,278.41,276.53Z" fill="#16244b"/><path d="M279.65,274.94l.69-.9Z" fill="#16244b"/><path d="M286.21,265.77l.51-.77Z" fill="#16244b"/><path d="M284.15,268.77l.57-.82Z" fill="#16244b"/><path d="M285.2,267.25l.54-.79Z" fill="#16244b"/><path d="M275.65,279.87c.34-.39.68-.8,1-1.21C276.33,279.07,276,279.48,275.65,279.87Z" fill="#16244b"/><path d="M276.84,278.47q.59-.71,1.17-1.44Q277.43,277.77,276.84,278.47Z" fill="#16244b"/><path d="M274.46,281.22l.78-.89Z" fill="#16244b"/><path d="M288.09,262.94c.16-.25.32-.49.47-.74C288.41,262.45,288.25,262.69,288.09,262.94Z" fill="#16244b"/><path d="M289.79,260.3l.42-.66Z" fill="#16244b"/><path d="M290.56,259.09c.14-.21.26-.41.39-.62C290.82,258.68,290.7,258.88,290.56,259.09Z" fill="#16244b"/><path d="M289,261.57c.15-.23.3-.45.44-.68C289.27,261.12,289.12,261.34,289,261.57Z" fill="#16244b"/><path d="M291.27,258l.4-.63C291.54,257.54,291.41,257.75,291.27,258Z" fill="#16244b"/><path d="M291.92,256.94l.44-.71Z" fill="#16244b"/><path d="M293.31,254.72l.13-.21Z" fill="#16244b"/><path d="M292.89,255.39l.1-.15Z" fill="#16244b"/><path d="M287.17,264.33l.5-.76Z" fill="#16244b"/><path d="M293.81,253.94l-.37.57-.13.21c-.1.17-.21.33-.32.52l-.1.15-.53.84-.44.71-.25.39-.4.63c-.1.17-.21.34-.32.51s-.25.41-.39.62l-.35.55-.42.66c-.12.2-.25.39-.38.59s-.29.45-.44.68-.27.42-.41.63-.31.49-.47.74l-.42.63-.5.76-.45.67-.51.77-.47.69-.54.79-.48.7-.57.82-.48.7-.59.82-.5.7-.61.84-.5.69-.64.86-.49.66-.69.9-.47.61c-.26.33-.51.66-.77,1s-.26.34-.4.5q-.58.74-1.17,1.44l-.17.19c-.34.41-.68.82-1,1.21l-.41.46-.78.89-.48.51-.71.77-.51.52-.68.69-.52.5-.66.63-.53.47-.65.56c-.17.16-.35.3-.53.44l-.62.5c-.18.14-.35.27-.53.39l-.61.44-.52.34-.6.37-.51.28-.59.3-.49.22-.57.22c-.16.05-.32.11-.48.15s-.15.06-.22.07a2.74,2.74,0,0,1-.28.05,3.76,3.76,0,0,1-2.94-.26l-.09,0a1,1,0,0,1-.2-.11l-.19-.09c-.12-.07-.22-.15-.32-.22l-.12-.09a3,3,0,0,1-.37-.34s0-.06-.07-.08l-.23-.31-.09-.15-.15-.28-.07-.18a2.47,2.47,0,0,1-.1-.29l-.06-.18c0-.11-.05-.22-.07-.33l0-.17c0-.14,0-.28,0-.43s0-.06,0-.1a5,5,0,0,1,0-.55v-.15l0-.42,0-.21c0-.13,0-.25.05-.38l0-.23c0-.13,0-.25.07-.38s0-.15,0-.23l.09-.42c0-.06,0-.13.05-.19l.15-.62c1.46-6.3,8.73-17.13,14.71-28.12l.17-.16c4.84-8.57,12.28-19.24,6.3-27.16-3.4-4.36-7.11-6.14-11.15-6.14-.49,0-1,0-1.46.07l-.39,0c-.41,0-.82.1-1.23.17l-.24,0c-.48.09-.95.2-1.42.32l-.36.1c-.39.11-.77.23-1.15.36l-.34.11c-.46.17-.93.35-1.39.55l-.28.12c-.39.17-.77.35-1.16.54l-.37.19c-.46.24-.92.48-1.37.75l-.11.06c-.42.25-.85.51-1.27.78l-.36.24c-.4.27-.8.54-1.19.82l-.17.12q-.68.48-1.32,1l-.34.27-1.06.87-.29.24a67.43,67.43,0,0,0-6.82,6.81,11.41,11.41,0,0,0-2.1-8.41c-3.23-4.36-7.11-6.14-11-6.14q-.69,0-1.38.06l-.36,0c-.41,0-.82.09-1.23.16l-.14,0c-.45.08-.89.18-1.34.29l-.34.09c-.39.1-.77.21-1.15.33l-.21.07c-.44.14-.87.31-1.31.48l-.32.13-1.09.49-.25.11c-.43.21-.85.43-1.28.66l-.29.16-1,.61a43.19,43.19,0,0,0-4.26,2.94,10,10,0,0,0-2.52-3.6c-.21-.2-.44-.39-.67-.58l-.22-.17c-.16-.13-.33-.25-.5-.37l-.27-.18c-.17-.12-.35-.22-.53-.33l-.24-.14c-.26-.15-.53-.29-.79-.41s-.55-.23-.82-.33l-.26-.08-.58-.17-.29-.07c-.2-.05-.39-.08-.59-.11l-.26,0a7.89,7.89,0,0,0-.84-.05c-2.42,0-5.65,1.61-8.4,4.85-5.66,6.95-11.8,17.45-17.14,28.45-8.56,17.78-14.38,36.85-11,43.15a7.24,7.24,0,0,0,6.47,4.37,10.38,10.38,0,0,0,1.08-.08,5.57,5.57,0,0,0,4.75-4.78.5.5,0,0,0,0-.12c.06-.43.13-.88.22-1.35a2.21,2.21,0,0,1,0-.25c.09-.49.19-1,.31-1.52v0c.12-.53.25-1.09.39-1.66,0-.09,0-.19.08-.29.14-.55.29-1.11.45-1.69,0-.11.06-.23.1-.34.16-.6.34-1.2.53-1.83,0-.06,0-.12,0-.17l.58-1.85.09-.28c.21-.64.43-1.3.66-2l.14-.41.71-2,.12-.33c.25-.68.5-1.38.77-2.08l0-.14c.28-.73.56-1.46.85-2.2.05-.13.1-.27.16-.4.28-.72.57-1.45.87-2.18.05-.13.11-.26.16-.4.31-.76.63-1.52,1-2.29l0-.08c.32-.76.64-1.52,1-2.27.05-.13.11-.25.16-.37.33-.75.66-1.5,1-2.25.06-.15.13-.3.2-.44.34-.77.69-1.53,1-2.29l.12-.26,1-2.22.09-.19h0l.09-.2.1-.18,0,0,.48-.83.41-.7.59-1c.12-.2.24-.41.37-.61l.67-1.07.28-.45c.32-.5.64-1,1-1.46,11.48-18.11,21.82-24.9,27.15-24.9,8.57,0,1.3,11.16-6.79,24.9,0,.16-.16.32-.16.48-5.49,9.21-17.29,33.62-12.44,42.67,1.45,2.59,3.72,4.37,6.46,4.37a11.11,11.11,0,0,0,1.15-.08,5.52,5.52,0,0,0,4.74-4.64c0-.18.06-.38.1-.57l.09-.55c.07-.36.15-.73.23-1.11,0-.16.07-.32.1-.48.13-.55.26-1.11.41-1.69l.07-.25c.13-.5.27-1,.41-1.53l.18-.63.36-1.23c.08-.24.15-.48.23-.72.12-.4.25-.8.38-1.2.07-.24.15-.49.23-.73l.42-1.28.23-.66c.17-.52.35-1,.53-1.54l.14-.41.69-1.93.2-.54.51-1.39.26-.69c.15-.41.3-.81.46-1.21.09-.23.17-.47.26-.7l.45-1.16c.08-.22.17-.43.25-.64.16-.41.31-.81.47-1.2l.2-.51.64-1.61c2.59-6.14,5.49-10.66,8.73-16.48v-.16c.32-.49.64-1.14,1-1.62,11-16.81,21-23.28,26.18-23.28,8.57,0,1.29,11.16-6.79,24.9-7.76,13.25-16,28.77-11.63,39.27,2.26,5,5.65,7.76,11.15,8.25h.64c17.62-.49,37-37,42-45.91a3.64,3.64,0,0,0,.49-1.61C299.15,251.51,295.43,251,293.81,253.94Z" fill="#16244b"/><path d="M524.13,226.78a11.41,11.41,0,0,1,2.1,8.41,67.43,67.43,0,0,1,6.82-6.81l.29-.24.8-.66-.13.11c-1-3.56-5.34-7-9.38-7a9,9,0,0,0-5,1.86A16.54,16.54,0,0,1,524.13,226.78Z" fill="#16244b"/><path d="M541,223l.52-.25Z" fill="#16244b"/><path d="M537.88,224.78c.31-.21.63-.4.94-.59C538.51,224.38,538.19,224.57,537.88,224.78Z" fill="#16244b"/><path d="M561.47,226.78c6,7.92-1.45,18.59-6.3,27.16l-.16.16c-6,11-13.26,21.82-14.71,28.12-.06.21-.11.41-.16.62s0,.13,0,.19l-.09.42c0,.08,0,.15,0,.23s-.05.25-.07.38l0,.23c0,.13,0,.25-.05.38l0,.21c0,.14,0,.28,0,.42a.76.76,0,0,0,0,.15,5,5,0,0,0,0,.55s0,.07,0,.1,0,.29,0,.43l0,.17c0,.11,0,.22.07.33l.06.18a2.47,2.47,0,0,0,.1.29l.07.18.15.28.09.15a3.24,3.24,0,0,0,.24.31l.06.08a3,3,0,0,0,.37.34l.12.09.32.22.19.09.2.11.09,0a5.92,5.92,0,0,0,1.58.44h0c-4.2-.65-4-4-3.23-7.6,1.46-6.3,8.73-17.13,14.87-28.12v-.16c4.85-8.57,12.29-19.24,6.31-27.16-3.24-4.36-7.12-6.14-11-6.14h-.09C554.41,220.67,558.1,222.45,561.47,226.78Z" fill="#16244b"/><path d="M539.62,223.74l.61-.34Z" fill="#16244b"/><path d="M546.15,221.14l.1,0Z" fill="#16244b"/><path d="M542.86,222.18l.35-.13Z" fill="#16244b"/><path d="M549.15,220.69l.87,0Z" fill="#16244b"/><path d="M543.63,289.81a3.85,3.85,0,0,0,.66-.06A5.06,5.06,0,0,1,543.63,289.81Z" fill="#16244b"/><path d="M545.34,289.54l-.38.09.21,0Z" fill="#16244b"/><path d="M534.94,226.85l.36-.27Z" fill="#16244b"/><path d="M536.63,225.61l.54-.37Z" fill="#16244b"/><path d="M518.8,252.32c-.32.48-.65,1.13-1,1.62v0c11.47-18.1,21.81-24.89,27.15-24.9h0C539.81,229,529.79,235.51,518.8,252.32Z" fill="#16244b"/><path d="M578.82,251.94a2,2,0,0,1,2,2,3.52,3.52,0,0,1-.49,1.61c-5,8.89-24.41,45.42-42,45.91h0c17.62-.49,37-37,42-45.91a3.61,3.61,0,0,0,.48-1.61A2,2,0,0,0,578.82,251.94Z" fill="#16244b"/><path d="M500.86,253.94c5.51-9.38,10.65-17.55,10.63-21.79a181.37,181.37,0,0,0-12.4,21.79c-4.69,9.92-8.62,20.24-10.59,28.52,2.7-10.26,8.71-22.2,12.2-28C500.7,254.26,500.86,254.1,500.86,253.94Z" fill="#16244b"/><path d="M534.74,227l-.34.27-.26.21.8-.63Z" fill="#16244b"/><path d="M540.91,223.05l-.38.19-.3.16L541,223Z" fill="#16244b"/><path d="M537.79,224.83l-.37.24a2.2,2.2,0,0,1-.25.17l.71-.46Z" fill="#16244b"/><path d="M539.16,224l-.11.06-.23.14.8-.45Z" fill="#16244b"/><path d="M536.23,225.89l-.17.12c-.26.18-.51.38-.76.57l1.33-1Z" fill="#16244b"/><path d="M575.55,253.94a3.78,3.78,0,0,1,3.27-2,3.59,3.59,0,0,0-3.29,2c-.11.16-.23.36-.36.57l-.14.21c-.1.17-.21.33-.32.52l-.1.15-.53.84-.44.71c-.08.13-.16.26-.25.39L573,258l-.33.51c-.12.21-.25.41-.39.62l-.35.55c-.14.22-.27.44-.42.66s-.25.39-.38.59-.29.45-.44.68l-.4.63-.48.74-.42.63-.5.76-.45.67-.51.77-.47.69-.54.79-.48.7c-.18.27-.38.55-.57.82l-.48.7-.59.82-.5.7-.61.84-.5.69-.64.86-.49.66-.69.9-.47.61c-.25.33-.51.66-.77,1s-.26.34-.4.5q-.59.74-1.17,1.44l-.16.19-1,1.21-.41.46-.78.89-.48.51c-.24.26-.47.52-.71.77l-.51.52c-.23.23-.45.47-.68.69l-.52.5c-.22.21-.44.43-.66.63l-.53.47-.64.56c-.18.16-.36.3-.53.44l-.63.5c-.18.14-.35.27-.53.39l-.61.44-.52.34-.6.37-.51.28-.59.3-.49.22-.57.22-.48.15,0,0C556,286.55,572.34,259.13,575.55,253.94Z" fill="#16244b"/><path d="M543.63,289.81h0Z" fill="#16244b"/><path d="M488.5,282.46a33.3,33.3,0,0,0-1.34,10.43A39.92,39.92,0,0,1,488.5,282.46Z" fill="#16244b"/><path d="M526.73,293.21c-4.52-10.5,3.88-26,11.48-39.27C546.29,240.2,553.57,229,545,229h0c8.56,0,1.28,11.16-6.79,24.9-7.76,13.25-16,28.77-11.64,39.27,2.26,5,5.65,7.76,11.15,8.25h.18C532.39,301,528.84,298.22,526.73,293.21Z" fill="#16244b"/><path d="M542.34,222.39l-.28.12-.58.27q.69-.32,1.38-.6C542.69,222.25,542.51,222.31,542.34,222.39Z" fill="#16244b"/><path d="M548.86,220.71l-.39,0c-.41,0-.82.1-1.23.17l-.24,0-.75.17a20.08,20.08,0,0,1,2.9-.43Z" fill="#16244b"/><path d="M544.89,289.64c-.2.05-.4.08-.6.11a5.57,5.57,0,0,0,.67-.12Z" fill="#16244b"/><path d="M545.58,221.27l-.36.1c-.38.11-.77.23-1.15.36l-.33.11c-.18.06-.35.14-.53.21a22.63,22.63,0,0,1,2.94-.91Z" fill="#16244b"/><path d="M550.32,220.64h0Z" fill="#16244b"/><path d="M580.38,255.55a3.52,3.52,0,0,0,.49-1.61,2,2,0,0,0-2-2,3.78,3.78,0,0,0-3.27,2c-3.21,5.19-19.56,32.61-30.21,35.6l-.17,0-.21,0a5.57,5.57,0,0,1-.67.12,3.85,3.85,0,0,1-.66.06h-.1a5.92,5.92,0,0,1-1.58-.44l-.09,0-.2-.11-.19-.09-.32-.22-.12-.09a3,3,0,0,1-.37-.34l-.06-.08a3.24,3.24,0,0,1-.24-.31l-.09-.15-.15-.28-.07-.18a2.47,2.47,0,0,1-.1-.29l-.06-.18c0-.11,0-.22-.07-.33l0-.17c0-.14,0-.28,0-.43s0-.06,0-.1a5,5,0,0,1,0-.55.76.76,0,0,1,0-.15c0-.14,0-.28,0-.42l0-.21c0-.13,0-.25.05-.38l0-.23c0-.13,0-.25.07-.38s0-.15,0-.23l.09-.42c0-.06,0-.13,0-.19s.1-.41.16-.62c1.45-6.3,8.72-17.13,14.71-28.12l.16-.16c4.85-8.57,12.28-19.24,6.3-27.16-3.37-4.33-7.06-6.11-11.06-6.14H550l-.87,0a20.08,20.08,0,0,0-2.9.43l-.1,0a22.63,22.63,0,0,0-2.94.91l-.35.13q-.69.28-1.38.6L541,223l-.73.37-.61.34-.8.45c-.31.19-.63.38-.94.59l-.71.46-.54.37-1.33,1-.36.27-.8.63-.8.66-.29.24a67.43,67.43,0,0,0-6.82,6.81,11.41,11.41,0,0,0-2.1-8.41,16.54,16.54,0,0,0-4.51-4.28,17.38,17.38,0,0,0-3.23,3c-1.59,1.95-3.24,4.2-4.9,6.66,0,4.24-5.12,12.41-10.63,21.79,0,.16-.16.32-.16.48-3.49,5.84-9.5,17.78-12.2,28a39.92,39.92,0,0,0-1.34,10.43,10.43,10.43,0,0,0,1.09,4.2c1.44,2.57,3.68,4.33,6.4,4.36a9.5,9.5,0,0,0,1.5-.13,5.51,5.51,0,0,0,4.15-3.49c.63-6.56,4.84-18.95,10.59-31.61A138.26,138.26,0,0,1,517.83,254v0c.32-.49.65-1.14,1-1.62,11-16.81,21-23.28,26.18-23.28h0c8.57,0,1.29,11.16-6.79,24.9-7.6,13.25-16,28.77-11.48,39.27,2.11,5,5.66,7.76,11.16,8.25h.47C556,301,575.37,264.44,580.38,255.55Z" fill="#16244b"/><rect x="617.88" y="325.72" width="86.74" height="17.5" rx="5.29" transform="translate(1322.5 668.94) rotate(180)" fill="#16244b"/><rect x="617.88" y="353.31" width="67.58" height="17.5" rx="5.29" transform="translate(1303.34 724.12) rotate(180)" fill="#16244b"/><rect x="617.88" y="380.9" width="47.92" height="17.5" rx="5.29" transform="translate(1283.69 779.3) rotate(180)" fill="#16244b"/><rect x="290.15" y="326.7" width="306.58" height="116.79" rx="16.62" fill="#02b9f2"/><path d="M399,415.48q-4.55,5-13.3,8a57.77,57.77,0,0,1-19.19,3.05q-16.05,0-25.65-9.69t-10.27-27l-.05-7a47.66,47.66,0,0,1,4.26-20.8,31.36,31.36,0,0,1,12.21-13.68,34.82,34.82,0,0,1,18.38-4.8q15.26,0,23.71,6.9T399,371.11H380c-.68-4.5-2.13-7.72-4.38-9.64s-5.42-2.88-9.54-2.88a12.9,12.9,0,0,0-11.45,6.21q-4,6.19-4.09,17.72v4.88q0,12.08,4.18,18.14t13.16,6.06q7.68,0,11.44-3.37V395.71H365.65V382.36H399Z" fill="#fff"/><path d="M449,379.81l15-35h21.27L459,396.48v29H439v-29L412.77,344.8h21.15Z" fill="#fff"/><path d="M550.57,391.22h-31V410.5h36.59v14.95H499.89V344.8h56.4v15h-36.7v17h31Z" fill="#fff"/><path d="M180.5,253.94c-3.72,5.65-18.75,30.06-40.25,47.52C127.32,312,112,320,95.48,320c-10.35,0-16.81-7.75-18.91-18.58-2.59-13.9,1.94-33,14.38-47.52,11.74-13.73,31.05-25.31,49.73-21,2,.47,4.9,2.09,7,1.59a2.13,2.13,0,0,0,1.5-1.17,3.12,3.12,0,0,0-.43-2.56c-2.2-4.27-5.6-7.43-9.48-10.16a27.89,27.89,0,0,0-8.56-4.2c-17.14-4.53,14.7-51.4,40.57-51.4,23.43,0,3.23,41.21-14.07,41.21a6,6,0,0,1-1-.08,2.65,2.65,0,0,1-.3-.06c-.2-.05-.39-.09-.58-.15l-.3-.13a3.29,3.29,0,0,1-.46-.23l-.28-.18a4,4,0,0,1-.39-.3l-.24-.23c-.11-.12-.22-.24-.32-.37l-.2-.27a3.91,3.91,0,0,1-.26-.44c-.06-.1-.11-.2-.16-.3a4.48,4.48,0,0,1-.21-.55,2.33,2.33,0,0,1-.11-.28c-.08-.27-.14-.54-.2-.82a.44.44,0,0,1,0-.1c-.06-.32-.1-.66-.13-1,0-.11,0-.22,0-.33s0-.49,0-.74,0-.29,0-.43,0-.46,0-.7,0-.32,0-.48.06-.47.1-.7,0-.34.08-.51l.15-.72.12-.52c.06-.25.13-.5.21-.76s.09-.33.14-.5.18-.56.28-.83.1-.31.16-.46c.13-.35.27-.71.42-1.06l.09-.23c.18-.44.38-.87.59-1.3.07-.13.14-.25.2-.38.15-.3.31-.61.48-.91l.27-.49.47-.79.33-.51c.16-.25.33-.5.5-.75s.24-.34.36-.51l.53-.72.39-.49c.19-.24.39-.47.59-.71l.4-.46.67-.71.39-.4c.28-.28.57-.54.86-.81l.26-.24c.38-.33.77-.66,1.18-1l.32-.23c.3-.23.61-.45.92-.66l.48-.3c.27-.17.54-.34.82-.5s.36-.2.55-.29.54-.28.82-.42l.58-.26c.14-.06.27-.13.42-.18a2.16,2.16,0,0,0-.31-4.1l-.43-.07-.37,0-.56,0-.35,0h-.89c-.3,0-.6,0-.9.08s-.59.1-.88.16l-.29.07c-.2,0-.4.09-.59.15l-.34.11-.54.17-.35.14-.51.21-.36.16-.5.24-.35.18-.5.28-.34.2-.5.32-.32.21c-.19.12-.37.25-.55.39l-.26.18c-.27.2-.53.41-.79.63s-.52.44-.77.67a2.73,2.73,0,0,0-.25.23q-.25.22-.51.48l-.28.29-.45.46-.3.32-.42.46-.29.35-.4.48-.29.36-.39.5-.27.36-.38.54-.25.36c-.14.2-.27.4-.4.61l-.2.3c-.2.31-.39.63-.58,1s-.37.64-.55,1c-.06.11-.11.22-.17.32s-.23.44-.34.66l-.2.4-.29.6-.19.42c-.09.2-.18.4-.26.6s-.13.29-.19.43-.16.4-.23.6-.12.29-.17.43-.15.41-.22.61l-.15.43-.21.64-.12.41c-.07.23-.14.46-.2.69s-.07.23-.1.35c-.09.34-.17.68-.25,1v.05c-.07.34-.14.68-.2,1,0,.11,0,.22-.06.33s-.08.47-.11.7l-.06.41c0,.21-.05.42-.07.62s0,.29,0,.43,0,.4,0,.6,0,.29,0,.43,0,.39,0,.59v.42c0,.2,0,.39,0,.58s0,.28,0,.41,0,.4,0,.6,0,.25,0,.38.05.42.08.64,0,.21,0,.31q.08.48.18.93t.24.9a2.46,2.46,0,0,0,.09.29c.06.2.12.4.19.59l.13.33c.07.18.14.35.22.52s.1.23.16.34.15.32.23.48.13.22.19.33l.27.45.21.32c.1.15.21.29.31.43l.23.3.36.42.24.27c.14.15.29.29.44.43s.15.15.22.22c.23.2.47.4.73.59a8.43,8.43,0,0,0,.78.55l.28.17c.19.11.38.23.58.33l.36.18.56.27.41.16.58.23.44.15c.21.06.42.13.63.18l.47.13.67.15.49.1.74.12.49.06c.28,0,.58.06.87.09l.43,0c.45,0,.91.05,1.38.05,20.2,0,38.79-30.87,33.78-49.29-2.1-7.76-8.4-13.26-20.37-13.26-13.73,0-26.5,5.34-36.85,13.26-.61.46-1.22.93-1.82,1.41l-.59.48-1.18,1-.68.6-1,.91-.71.66-.95.89-.72.7-.89.89-.7.72-.85.9-.68.75-.8.9-.66.77-.77.91-.63.78-.73.93-.6.79c-.23.31-.47.62-.69.94s-.39.53-.58.79l-.65,1-.54.79c-.21.32-.42.64-.62,1l-.51.79-.58,1-.47.79c-.19.33-.37.66-.55,1s-.29.51-.43.77l-.53,1c-.12.25-.25.5-.37.74s-.35.73-.51,1.09l-.32.68-.52,1.24c-.08.18-.16.35-.23.53-.23.59-.45,1.17-.66,1.75l-.08.24c-.18.5-.35,1-.5,1.5-.07.21-.12.41-.18.61-.11.38-.22.75-.32,1.12s-.11.46-.17.69-.17.68-.24,1-.1.48-.14.73-.13.64-.18.95-.08.49-.11.74-.09.61-.13.92,0,.49-.07.73,0,.6-.07.89l0,.72c0,.29,0,.58,0,.87s0,.48,0,.71,0,.57,0,.84,0,.47,0,.7.06.55.09.81.07.46.1.68l.15.79c0,.22.09.44.14.66l.21.76c.06.21.12.42.19.63s.17.5.26.74.15.41.23.6a16,16,0,0,0,1.24,2.4c-1.35.4-2.66.8-4,1.23l-.25.09q-.75.25-1.5.54l-.47.18c-.58.22-1.16.45-1.74.71-15.52,6.63-28,19.56-35.89,33.3-8.89,15.51-12.6,32.81-10.67,47.52,2.43,18.75,13.74,33.13,34.59,33.13,22.63,0,43-15,59.65-33.13,14.38-15.68,25.7-33.79,32.65-46.07a2.61,2.61,0,0,0,.48-1.45C186,251.51,182.28,250.86,180.5,253.94Z" fill="#16244b"/></svg>