<svg id="Capa_1" data-name="Capa 1" xmlns="http://www.w3.org/2000/svg" viewBox="0 0 841.89 595.28"><defs><style>.cls-1{fill:#fff;}.cls-2{fill:#16244b;}</style></defs><title>Emprende GYE</title><path class="cls-1" d="M397.25,196.25a9.22,9.22,0,0,1,4.37,4.85c1.29,3.39.48,6.3-2.27,13.57,5,2.43,11.48,4.53,16.65,7.28a2.56,2.56,0,0,1,1.13.64c10.19,5.82,1,23.28-4.68,32.65-.65,1-1.13,1.94-1.62,2.75-5.82,10-12,19.72-13.41,25.54-.81,3.4-1,7,3.39,7.6,10.34,0,28.45-30.39,31.84-35.89,1.78-2.91,5.34-2.42,5.34,0a3.68,3.68,0,0,1-.49,1.62c-5,8.89-24.24,45.42-42,45.91H395c-5.5-.49-9.05-3.24-11.15-8.25-4.53-10.5,3.88-26.34,11.47-39.28,2.27-3.71,4.37-7.11,6-10.18,3.72-6.3,5.18-11,.33-14.22a39.91,39.91,0,0,0-7.76-4c-4,7.11-9.86,18.58-15.52,28.44a6.29,6.29,0,0,0-1,1.62c-3.07,5-6.62,1.46-4.85-1.62,6.47-10.83,12.61-23.76,16.33-30.71a14.47,14.47,0,0,1-4.69-2.58c-10.34-8.08-4.53-25.7,6.47-26.51C392.73,195.28,395.48,195.28,397.25,196.25Zm-2.74,3.23c-3.72-1.94-6.15,2.59-6.15,7.27,0,3.07,1.46,3.07,6.47,5.82,2.1-5.33,2.42-8.73,1.62-10.83A3.93,3.93,0,0,0,394.51,199.48Z"/><path class="cls-1" d="M482.76,255.24c-10.51,12.77-26.67,21.83-36.21,10.35a72.85,72.85,0,0,0-3.39,11.8c-1.78,9.37.32,16.32,7.11,16.32,18.75,0,37.82-22.46,48.33-38.47,1.78-2.91,5.5-2.42,5.33,0a3.65,3.65,0,0,1-.48,1.62c-17.62,30.55-40.09,45.91-58.19,45.91-23.28,0-24.08-25.22-12.61-47.53,8.41-16.48,25.22-33.29,44.94-33.29C498.6,222,494.24,241,482.76,255.24Zm-30.87.17a30.75,30.75,0,0,0-3.24,6c4.53,4.52,12.77.32,19.89-6.15C478.72,246,486.8,232,478.88,231.81c-8.89.48-22,16.65-26.83,23.43Z"/><path class="cls-1" d="M682.63,166.8l-.09,0,.22.08Z"/><path class="cls-1" d="M682.76,166.85l-.22-.08-.24-.07-.54-.14-.27-.06-.53-.08-.24,0a6.61,6.61,0,0,0-.76,0c-3.23,0-6.47,2.11-8.73,5-.81,1-1.62,1.93-2.42,3.07-9.38,12.28-23.93,33.46-33,47.52-2.75,4.2-5,7.76-6.46,10.18a13.94,13.94,0,0,0-5-8l-.23-.16a9.82,9.82,0,0,0-1-.63c-.35-.19-.72-.36-1.1-.52l-.3-.12a12,12,0,0,0-1.24-.4c-.44-.11-.9-.19-1.37-.26l-.36,0a12.47,12.47,0,0,0-1.53-.09h-.16c-17,0-32.65,15.68-42,33.29-11.48,21.5-13.26,45.91,4,47.53.64,0,1.29.16,1.94.16.48,0,.81-.16,1.29-.16.32,0,.64-.1.95-.16l.32-.08.63-.15.37-.12c.19-.05.37-.11.56-.18s.26-.1.39-.15.36-.13.53-.21l.4-.18.51-.24.41-.22c.16-.09.33-.17.49-.27s.27-.16.41-.24.32-.19.48-.3l.4-.26.48-.32.39-.29.47-.35.39-.3.47-.38.38-.32.46-.41.37-.33.47-.43.36-.34.46-.46.34-.34.48-.5.32-.33c.17-.18.34-.37.5-.56s.19-.19.27-.29c4.5-5,8.28-11.11,11.11-15.06a25.32,25.32,0,0,0,1.56,16.55h0l.42.81.15.26.32.52c.06.1.12.2.19.3s.2.31.31.46l.22.29.33.42.23.28c.12.14.24.27.37.4a2.73,2.73,0,0,0,.23.25l.43.41.21.19c.22.19.45.38.68.55h0c.23.17.48.33.72.48l.25.14.53.29.3.15.51.22.35.13.52.17.36.11.57.13.36.07.65.08.32,0c.34,0,.67,0,1,0,17.94,0,38-37,43.16-45.91a3.65,3.65,0,0,0,.48-1.62c.17-2.42-3.55-2.91-5.17,0-3.72,5.5-22.14,35.89-32.49,35.89-6.62,0-.64-16.33,9.54-35.89,2.26-4.36,4.69-8.89,7.27-13.41,2.59-4.69,7.12-11.8,12.29-19.88.56-.86,1.14-1.73,1.72-2.61l.29-.44,1.71-2.56.31-.47c.6-.88,1.19-1.77,1.8-2.67L660,213l1.76-2.59c.1-.14.2-.28.29-.43.6-.87,1.2-1.73,1.79-2.6l.37-.52c.6-.88,1.21-1.75,1.81-2.61l.24-.34,1.77-2.51.21-.3,1.83-2.55.36-.51,1.8-2.48.28-.38c.58-.79,1.16-1.58,1.74-2.35l.16-.21c.59-.8,1.19-1.59,1.77-2.36l.34-.44,1.7-2.21c.11-.13.2-.26.3-.39l1.7-2.15,0,0c.56-.7,1.11-1.37,1.66-2l.29-.36,1.54-1.82.29-.33c.51-.59,1-1.16,1.51-1.7l0,0A7.4,7.4,0,0,0,682.76,166.85Zm-63.58,81.93a54.43,54.43,0,0,1-3.23,6.46c-8.4,15.36-29.26,48.82-31.84,30.07-1.13-7.6,3.88-19.56,10.34-30.07,7.6-11.79,17.14-21.65,22.47-21C625.65,235.2,620.15,245.55,619.18,248.78Z"/><polygon class="cls-1" points="608.46 295.56 608.46 295.56 608.46 295.56 608.46 295.56"/><path class="cls-1" d="M707.6,255.24c-10.51,12.77-26.67,21.83-36.21,10.35a72.85,72.85,0,0,0-3.39,11.8c-1.78,9.37.32,16.32,7.11,16.32,18.75,0,37.83-22.46,48.33-38.47,1.78-2.91,5.5-2.42,5.34,0a3.68,3.68,0,0,1-.49,1.62c-17.62,30.55-40.09,45.91-58.19,45.91-23.27,0-24.08-25.22-12.61-47.53C665.9,238.76,682.71,222,702.43,222,723.44,222,719.08,241,707.6,255.24Zm-30.87.17a30.17,30.17,0,0,0-3.23,6c4.52,4.52,12.77.32,19.88-6.15,10.18-9.21,18.26-23.27,10.34-23.43-8.89.48-22,16.65-26.83,23.43Z"/><path class="cls-1" d="M323.27,222.56s5.53,1.26,6.52,10.19l-9.26,10.91-12.71,1.13,5.05-11.68,9.69-10.55"/><path class="cls-1" d="M314.86,286.56l-.06.05Z"/><path class="cls-1" d="M315.15,286.31c1-.84,1.92-1.76,2.9-2.78l0-.06C316.64,284.93,315.67,285.84,315.15,286.31Z"/><path class="cls-1" d="M325.81,274c1.34-1.86,2.63-3.8,3.85-5.79-1.39,2.14-2.71,4.05-4,5.77Z"/><path class="cls-1" d="M372.52,255.24C366.7,263.81,358.78,274,349.57,279c-4.53,2.43-7.76,3.24-10.51,2.91a90.84,90.84,0,0,0,13.1-26.67C357.49,237.63,356,222,344.24,222c-8.41,0-17.62,9.37-25.87,18.75a124.63,124.63,0,0,1,9.86-12.29A8.43,8.43,0,0,0,320.8,222h-1.62a14.42,14.42,0,0,0-9.21,5.82c-2.91,4.68-9.22,14.87-16.65,27.47-9.21,15.84-18.91,31.52-27.8,47.53-8.24,15-15,28.93-17,38.79-1.3,6.79-1.46,16.81,6.95,16.81,4.11,0,9.2-1.48,10.41-5.89,2.22-8.11,3.13-16.12,6.28-24.17,3.41-8.71,7.63-17.08,11.59-25.54,3.07-6.47,6.15-13.1,8.89-19.24-.16,10.51,3.56,18.27,12,19.24.49,0,1,.16,1.62.16s1.46-.16,2.1-.16c8.57-.65,16.33-5.18,22.95-11.8,23-.17,38-19.4,46.07-34.11a3.68,3.68,0,0,0,.49-1.62C378,252.66,374.3,252,372.52,255.24Zm-42.76,12.81,0-.05-.13.2a93.2,93.2,0,0,1-10.22,13.73c-3,3.37-7.74,9.27-12.87,8.71-10.34-1.13-3.07-19.88,7.12-35.4,10.34-15.67,23.92-28,25.7-15.67.48,4.2-.65,9.69-3.07,15.67A91.85,91.85,0,0,1,329.76,268.05Z"/><path class="cls-1" d="M329.79,268l0,.05-.1.15Z"/><path class="cls-1" d="M783.12,244.74c-.2-2.71-.46-5.91-.84-9.09-.33-2.67-.74-5.85-1.37-9.16l0-.13a5.24,5.24,0,0,0-4.9-4.26,51.46,51.46,0,0,0-13.47,1.32l-3.11.74-2,.59-1,.29c-1.08.3-2.11.67-3.13,1l-.78.27c-.72.25-1.47.5-2.23.82-3.41,1.3-7,2.91-11.4,5.08l-.4.2-.32.3a3.2,3.2,0,0,0-.74,4c1.46,2.6,3.79,2,13.57-.74l2-.55A85.47,85.47,0,0,1,764.26,233l.7-.09c1.26-.17,4.5-.6,5.64-.28a8.81,8.81,0,0,1,.5,3.43v.11c.07,2.95.14,6,.13,9,0,6.57-.22,12-.66,17.16a167.62,167.62,0,0,1-5.92,33.43,123.7,123.7,0,0,1-5.6,15.7c-.22.49-.43,1-.64,1.47-.35.82-.68,1.59-1.06,2.33l-1.87,3.8c-.38.75-.79,1.48-1.23,2.26-.26.46-.53.92-.76,1.35l-1,1.77-1.13,1.78a97.72,97.72,0,0,1-21.54,24.58L728,352.35a3.92,3.92,0,0,0-1.26,4.22l.72,2.31c.12.41.28.95.41,1.42l.43,1.62c.31,1.25.54,2.28.75,3.26.47,2.22.87,4.44,1.17,6.61a77.38,77.38,0,0,1,.75,13.13,45.42,45.42,0,0,1-2,12.37,31.52,31.52,0,0,1-2.26,5.31c-.16.25-.31.5-.46.76a13.22,13.22,0,0,1-1,1.59l-.4.56c-.14.2-.27.4-.4.55l-1,1.19-.09.1a8.8,8.8,0,0,1-.82.83l-1,1-1.26,1a6.81,6.81,0,0,1-.82.61l-.09.06-.66.43a15.36,15.36,0,0,1-1.76,1.05l-16.18,7.92c-5.63,2.74-11.32,5.58-16.83,8.33l-.35.17c.14-.5.25-1,.33-1.42.69-3.87,1.5-7.62,2.44-11.21.16-.71.36-1.41.56-2.11l.36-1.28c.18-.64.36-1.28.59-2l.88-2.7,1-2.62c.63-1.61,2.1-5.36-1-6.78s-5,2.14-5.83,3.74l-1.33,2.66-1.24,2.79c-.35.76-.65,1.5-.93,2.21l-.5,1.26c-.31.78-.62,1.56-.86,2.27-1.49,4-2.67,8.12-3.62,11.62-.49,1.8-1,3.73-1.46,5.9-.43,1.89-.88,3.92-1.24,6.05l-.39,2.37a4,4,0,0,0,3.9,4.6,3.86,3.86,0,0,0,1.52-.31l2.36-1,9.54-4c5.65-2.35,11.5-4.78,17.24-7.23l13.34-5.7,1.75-.76,1.75-.82a30,30,0,0,0,3.24-1.73l.5-.3a18.82,18.82,0,0,0,2-1.35l1.63-1.19,1.75-1.53a17,17,0,0,0,1.69-1.63l1.44-1.54c.35-.4.67-.81,1-1.23l.35-.45a28.06,28.06,0,0,0,2-2.85l.45-.71.16-.25a42.46,42.46,0,0,0,3.6-7.75,58.71,58.71,0,0,0,3.11-16.21,88.77,88.77,0,0,0-.63-15.79c-.34-2.67-.77-5.26-1.26-7.69-.13-.66-.28-1.33-.43-2-.06-.29-.14-.58-.22-.88l1.59-1.37,1.82-1.75,1.11-1.08c.75-.73,1.5-1.45,2.23-2.2l3.22-3.58A107.71,107.71,0,0,0,764.1,334l1.2-2,1.19-2.19c.24-.46.49-.91.74-1.37.49-.89,1-1.82,1.47-2.8l2-4.13c.47-1,.87-1.94,1.26-2.88l.63-1.5a138.07,138.07,0,0,0,5.85-17.7A170.44,170.44,0,0,0,782,281.33c.78-6,1.29-12.12,1.49-18.3C783.62,256.4,783.52,250.42,783.12,244.74Z"/><path class="cls-1" d="M290.46,259.78c.11-.17.22-.34.32-.51C290.68,259.44,290.57,259.61,290.46,259.78Z"/><path class="cls-1" d="M291.87,257.54l.52-.84Z"/><path class="cls-1" d="M289.72,261l.35-.55Z"/><path class="cls-1" d="M291.18,258.64l.24-.39Z"/><path class="cls-1" d="M288.92,262.2l.38-.59Z"/><path class="cls-1" d="M286.23,266.31l.45-.67Z"/><path class="cls-1" d="M285.24,267.77l.47-.69Z"/><path class="cls-1" d="M288.07,263.51l.41-.63Z"/><path class="cls-1" d="M287.18,264.88c.14-.22.28-.42.41-.63Z"/><path class="cls-1" d="M292.49,256.55l.33-.52Z"/><path class="cls-1" d="M293,255.82l.37-.58Z"/><path class="cls-1" d="M278.69,276.86l.47-.61Z"/><path class="cls-1" d="M277.52,278.34l.39-.5Z"/><path class="cls-1" d="M279.84,275.35l.49-.66Z"/><path class="cls-1" d="M276.18,280c.05-.06.11-.12.16-.19S276.23,279.91,276.18,280Z"/><path class="cls-1" d="M281,273.83l.51-.69Z"/><path class="cls-1" d="M273.49,283l.47-.51Z"/><path class="cls-1" d="M274.75,281.64c.13-.15.27-.3.4-.46C275,281.34,274.88,281.49,274.75,281.64Z"/><path class="cls-1" d="M282.08,272.3l.51-.7Z"/><path class="cls-1" d="M283.17,270.78l.49-.7Z"/><path class="cls-1" d="M284.23,269.26l.48-.7Z"/><path class="cls-1" d="M280.33,274.69c.22-.28.43-.57.64-.86C280.76,274.12,280.55,274.41,280.33,274.69Z"/><path class="cls-1" d="M281.48,273.14l.6-.84Z"/><path class="cls-1" d="M282.59,271.6c.19-.28.39-.55.58-.82C283,271.05,282.78,271.32,282.59,271.6Z"/><path class="cls-1" d="M277.91,277.84l.78-1Z"/><path class="cls-1" d="M279.16,276.25l.68-.9Z"/><path class="cls-1" d="M285.71,267.08l.52-.77Z"/><path class="cls-1" d="M283.66,270.08l.57-.82Z"/><path class="cls-1" d="M284.71,268.56l.53-.79Z"/><path class="cls-1" d="M275.15,281.18c.35-.39.69-.8,1-1.21C275.84,280.38,275.5,280.79,275.15,281.18Z"/><path class="cls-1" d="M276.34,279.78c.4-.47.79-.95,1.18-1.44C277.13,278.83,276.74,279.31,276.34,279.78Z"/><path class="cls-1" d="M274,282.53l.79-.89Z"/><path class="cls-1" d="M287.59,264.25l.48-.74Z"/><path class="cls-1" d="M289.3,261.61l.42-.66Z"/><path class="cls-1" d="M290.07,260.4l.39-.62Z"/><path class="cls-1" d="M288.48,262.88l.44-.68Z"/><path class="cls-1" d="M290.78,259.27l.4-.63C291.05,258.85,290.92,259.06,290.78,259.27Z"/><path class="cls-1" d="M291.42,258.25l.45-.71Z"/><path class="cls-1" d="M292.82,256l.13-.21Z"/><path class="cls-1" d="M292.39,256.7l.1-.15Z"/><path class="cls-1" d="M286.68,265.64l.5-.76Z"/><path class="cls-1" d="M293.32,255.24l-.37.58-.13.21-.33.52-.1.15-.52.84-.45.71-.24.39-.4.63c-.1.17-.21.34-.32.51l-.39.62-.35.55-.42.66-.38.59-.44.68-.41.63-.48.74c-.13.21-.27.41-.41.63l-.5.76-.45.67-.52.77-.47.69-.53.79-.48.7-.57.82-.49.7c-.19.27-.39.54-.58.82l-.51.7-.6.84-.51.69c-.21.29-.42.58-.64.86l-.49.66-.68.9-.47.61-.78,1-.39.5c-.39.49-.78,1-1.18,1.44,0,.07-.11.13-.16.19-.34.41-.68.82-1,1.21-.13.16-.27.31-.4.46l-.79.89-.47.51-.72.77-.51.52-.68.69-.52.5-.66.63-.53.47-.64.56-.53.44-.63.5c-.17.14-.35.26-.52.39l-.62.44-.52.34-.6.37-.5.28-.59.29-.5.23-.57.21a4.5,4.5,0,0,1-.48.16l-.22.07a2.56,2.56,0,0,1-.27.05,6.07,6.07,0,0,1-1.37.18,5.84,5.84,0,0,1-1.57-.44l-.1,0-.2-.11-.18-.1a2.66,2.66,0,0,1-.33-.21l-.12-.09a3.06,3.06,0,0,1-.37-.35l-.06-.08-.24-.31s-.05-.09-.08-.14a1.91,1.91,0,0,1-.15-.28,1.34,1.34,0,0,1-.07-.18,2.49,2.49,0,0,1-.11-.29c0-.06,0-.12-.05-.18s-.05-.22-.07-.33l0-.17a3,3,0,0,1,0-.43.31.31,0,0,1,0-.1c0-.18,0-.36,0-.55s0-.1,0-.15l0-.42c0-.07,0-.14,0-.21s0-.25.05-.38,0-.15,0-.23,0-.26.07-.38,0-.15,0-.23.06-.28.1-.42,0-.13,0-.19.1-.41.16-.62c1.46-6.3,8.73-17.13,14.71-28.12l.16-.17c4.85-8.56,12.29-19.23,6.3-27.15-3.39-4.36-7.11-6.14-11.15-6.14a14.08,14.08,0,0,0-1.45.07l-.4,0c-.41,0-.81.1-1.22.17l-.24,0c-.48.09-1,.2-1.43.32l-.36.1-1.15.36-.33.11c-.47.17-.93.35-1.4.55l-.28.12c-.38.17-.77.35-1.15.54l-.37.19c-.46.24-.92.48-1.37.75l-.11.06c-.43.25-.85.51-1.27.78l-.37.24-1.18.82-.18.12q-.66.48-1.32,1l-.34.27c-.35.29-.71.57-1.06.87l-.28.24a67.33,67.33,0,0,0-6.82,6.8,11.44,11.44,0,0,0-2.1-8.4c-3.24-4.36-7.11-6.14-11-6.14q-.7,0-1.38.06l-.36,0c-.41,0-.83.09-1.24.16l-.13,0c-.45.08-.9.18-1.34.29a2.25,2.25,0,0,0-.35.09q-.57.15-1.14.33l-.21.07c-.44.14-.88.31-1.31.48l-.32.13c-.37.15-.73.31-1.09.48l-.26.12c-.42.21-.85.43-1.27.66l-.3.16-1,.61a47.56,47.56,0,0,0-4.26,2.93,10,10,0,0,0-2.51-3.59l-.67-.58-.22-.17-.51-.37-.26-.18a5.84,5.84,0,0,0-.53-.33l-.24-.14a8.62,8.62,0,0,0-.8-.41l-.81-.33-.26-.08c-.19-.07-.39-.12-.58-.17l-.3-.07c-.19-.05-.39-.08-.58-.11l-.26,0a7.89,7.89,0,0,0-.84-.05c-2.43,0-5.66,1.61-8.41,4.85-5.65,6.95-11.8,17.45-17.13,28.44-8.57,17.78-14.39,36.86-11,43.16a7.22,7.22,0,0,0,6.46,4.37,10.37,10.37,0,0,0,1.09-.08,5.57,5.57,0,0,0,4.75-4.78.5.5,0,0,1,0-.12q.09-.65.21-1.35a2.21,2.21,0,0,0,0-.25c.09-.49.2-1,.31-1.53h0c.11-.54.25-1.09.39-1.66,0-.1.05-.19.07-.29.14-.55.29-1.11.46-1.69l.09-.34c.17-.6.35-1.21.53-1.83l.06-.17c.18-.61.38-1.23.58-1.85l.09-.28c.21-.64.43-1.3.66-2,0-.13.09-.26.13-.4.23-.66.47-1.34.72-2l.12-.32c.25-.68.5-1.38.77-2.08a.78.78,0,0,1,0-.14c.27-.73.56-1.46.85-2.2l.15-.4.87-2.18c.06-.13.11-.27.17-.4.31-.76.62-1.52.95-2.29l0-.09,1-2.27c.05-.12.1-.24.16-.36.32-.75.66-1.5,1-2.25.07-.15.14-.3.2-.45.35-.76.69-1.52,1-2.28l.12-.26q.51-1.11,1.05-2.22c0-.07,0-.13.08-.19h0a1.24,1.24,0,0,1,.1-.2,1.62,1.62,0,0,1,.1-.18l0,0,.48-.83.41-.7c.19-.33.39-.65.58-1s.25-.41.37-.61l.67-1.07.29-.45q.48-.75,1-1.47c11.47-18.1,21.82-24.89,27.15-24.89,8.57,0,1.29,11.16-6.79,24.89,0,.17-.16.33-.16.49-5.5,9.21-17.3,33.62-12.45,42.67,1.46,2.59,3.72,4.37,6.47,4.37a11.3,11.3,0,0,0,1.15-.08,5.52,5.52,0,0,0,4.73-4.64c0-.18.07-.38.1-.57s.06-.37.1-.55c.07-.36.15-.74.23-1.11,0-.16.06-.32.1-.48.12-.55.26-1.11.41-1.69l.06-.25q.19-.75.42-1.53l.18-.63.36-1.23c.07-.24.15-.48.22-.72.13-.4.25-.8.38-1.2l.24-.73.42-1.28c.07-.22.15-.44.22-.67.18-.51.36-1,.53-1.53l.15-.41.69-1.93c.06-.19.13-.36.2-.54l.51-1.4.26-.68.45-1.21.27-.7.45-1.16c.08-.22.16-.43.25-.65.16-.4.31-.8.46-1.19l.21-.52c.22-.55.43-1.08.63-1.6,2.59-6.14,5.5-10.67,8.73-16.48v-.17c.33-.48.65-1.13,1-1.61,11-16.81,21-23.28,26.19-23.28,8.57,0,1.29,11.16-6.79,24.89-7.76,13.26-16,28.78-11.64,39.28,2.26,5,5.66,7.76,11.15,8.25h.65c17.62-.49,37-37,42-45.91a3.65,3.65,0,0,0,.48-1.62C298.65,252.82,294.93,252.33,293.32,255.24Z"/><path class="cls-1" d="M523.64,228.09a11.44,11.44,0,0,1,2.1,8.4,68.37,68.37,0,0,1,6.82-6.8l.28-.24.81-.66-.14.11c-1-3.56-5.33-7-9.37-7a9.06,9.06,0,0,0-5,1.86A16.28,16.28,0,0,1,523.64,228.09Z"/><path class="cls-1" d="M540.47,224.34l.52-.25Z"/><path class="cls-1" d="M537.39,226.08l.94-.58Z"/><path class="cls-1" d="M561,228.09c6,7.92-1.46,18.59-6.31,27.15l-.16.17c-6,11-13.25,21.82-14.71,28.12,0,.21-.11.41-.16.62s0,.13,0,.19-.07.28-.1.42,0,.15,0,.23-.05.25-.07.38,0,.15,0,.23,0,.25-.05.38a1.49,1.49,0,0,1,0,.21l0,.42a.76.76,0,0,1,0,.15c0,.19,0,.37,0,.55a.31.31,0,0,0,0,.1c0,.15,0,.29,0,.43l0,.17c0,.11,0,.22.07.33a1.21,1.21,0,0,1,.05.18,2.49,2.49,0,0,0,.11.29,1.34,1.34,0,0,0,.07.18l.15.28.09.14a3.55,3.55,0,0,0,.23.31.27.27,0,0,0,.07.08,3,3,0,0,0,.36.35l.12.09a3.7,3.7,0,0,0,.33.21l.18.1.2.11.1,0a5.82,5.82,0,0,0,1.58.44h0c-4.2-.65-4-4-3.23-7.6,1.45-6.3,8.73-17.13,14.87-28.12v-.17c4.85-8.56,12.28-19.23,6.3-27.15-3.23-4.36-7.11-6.14-11-6.14h-.09C553.92,222,557.61,223.76,561,228.09Z"/><path class="cls-1" d="M539.12,225.05l.62-.34Z"/><path class="cls-1" d="M545.65,222.45l.1,0Z"/><path class="cls-1" d="M542.36,223.49l.36-.13Z"/><path class="cls-1" d="M548.65,222l.88,0Z"/><path class="cls-1" d="M543.13,291.12a3.68,3.68,0,0,0,.66-.06A4.91,4.91,0,0,1,543.13,291.12Z"/><path class="cls-1" d="M544.84,290.85l-.38.09.22,0Z"/><path class="cls-1" d="M534.45,228.16l.35-.27Z"/><path class="cls-1" d="M536.13,226.92l.55-.37Z"/><path class="cls-1" d="M518.3,253.63c-.32.48-.64,1.13-1,1.61v0c11.47-18.09,21.81-24.88,27.15-24.89h0C539.32,230.35,529.3,236.82,518.3,253.63Z"/><path class="cls-1" d="M578.32,253.25a2,2,0,0,1,2,2,3.65,3.65,0,0,1-.48,1.62c-5,8.89-24.41,45.42-42,45.91h0c17.62-.49,37-37,42-45.91a3.55,3.55,0,0,0,.49-1.62A2,2,0,0,0,578.32,253.25Z"/><path class="cls-1" d="M500.36,255.24c5.52-9.37,10.65-17.54,10.64-21.79a180.21,180.21,0,0,0-12.4,21.79c-4.69,9.93-8.62,20.25-10.6,28.53,2.71-10.26,8.72-22.2,12.2-28C500.2,255.57,500.36,255.41,500.36,255.24Z"/><path class="cls-1" d="M534.25,228.31l-.35.27-.25.21.8-.63Z"/><path class="cls-1" d="M540.41,224.36l-.37.19-.3.16.73-.37Z"/><path class="cls-1" d="M537.29,226.14l-.37.24-.24.17.71-.47Z"/><path class="cls-1" d="M538.67,225.3l-.11.06-.23.14.79-.45Z"/><path class="cls-1" d="M535.74,227.2l-.17.12c-.26.18-.51.38-.77.57.44-.33.89-.66,1.33-1Z"/><path class="cls-1" d="M575.06,255.24a3.79,3.79,0,0,1,3.26-2,3.58,3.58,0,0,0-3.28,2l-.37.58-.13.21-.33.52-.09.15-.53.84-.45.71c-.07.13-.16.26-.24.39l-.4.63c-.1.17-.21.34-.32.51l-.39.62-.35.55-.42.66-.38.59c-.14.23-.29.45-.44.68s-.27.42-.41.63-.31.49-.48.74-.27.41-.41.63l-.5.76-.45.67-.51.77-.47.69-.54.79-.48.7-.57.82-.49.7-.58.82-.5.7-.61.84-.5.69-.64.86-.5.66-.68.9-.47.61-.78,1-.39.5c-.39.49-.78,1-1.18,1.44a1.46,1.46,0,0,1-.16.19c-.34.41-.68.82-1,1.21l-.41.46-.78.89-.48.51-.72.77-.5.52-.68.69-.53.5-.66.63-.53.47c-.21.19-.42.38-.64.56l-.53.44-.63.5c-.17.14-.35.26-.52.39l-.62.44-.51.34-.61.37-.5.28-.59.29-.49.23-.57.21-.48.16-.06,0C555.5,287.86,571.85,260.44,575.06,255.24Z"/><path class="cls-1" d="M543.13,291.12h0Z"/><path class="cls-1" d="M488,283.77a33,33,0,0,0-1.33,10.43A39.86,39.86,0,0,1,488,283.77Z"/><path class="cls-1" d="M526.24,294.52c-4.52-10.5,3.88-26,11.48-39.28,8.08-13.73,15.35-24.89,6.79-24.89h0c8.55,0,1.28,11.16-6.8,24.89-7.76,13.26-16,28.78-11.64,39.28,2.27,5,5.66,7.76,11.16,8.25h.17C531.9,302.28,528.34,299.53,526.24,294.52Z"/><path class="cls-1" d="M541.85,223.7l-.29.12-.57.27c.45-.21.91-.41,1.37-.6C542.19,223.56,542,223.62,541.85,223.7Z"/><path class="cls-1" d="M548.37,222l-.4,0c-.4,0-.81.1-1.22.17l-.24,0-.76.17a19.15,19.15,0,0,1,2.9-.43Z"/><path class="cls-1" d="M544.4,291c-.2.05-.41.08-.61.11a5.24,5.24,0,0,0,.67-.12Z"/><path class="cls-1" d="M545.08,222.58l-.35.1c-.39.11-.77.23-1.15.36l-.34.11-.52.21a22.5,22.5,0,0,1,2.93-.91Z"/><path class="cls-1" d="M549.82,222h0Z"/><path class="cls-1" d="M579.89,256.86a3.65,3.65,0,0,0,.48-1.62,2,2,0,0,0-2-2,3.79,3.79,0,0,0-3.26,2c-3.21,5.2-19.56,32.62-30.22,35.61l-.16,0-.22,0a5.24,5.24,0,0,1-.67.12,3.68,3.68,0,0,1-.66.06H543a5.82,5.82,0,0,1-1.58-.44l-.1,0-.2-.11-.18-.1a3.7,3.7,0,0,1-.33-.21l-.12-.09a3,3,0,0,1-.36-.35.27.27,0,0,1-.07-.08,3.55,3.55,0,0,1-.23-.31l-.09-.14-.15-.28a1.34,1.34,0,0,1-.07-.18,2.49,2.49,0,0,1-.11-.29,1.21,1.21,0,0,0-.05-.18c0-.11,0-.22-.07-.33l0-.17c0-.14,0-.28,0-.43a.31.31,0,0,1,0-.1c0-.18,0-.36,0-.55a.76.76,0,0,0,0-.15l0-.42a1.49,1.49,0,0,0,0-.21c0-.13,0-.25.05-.38s0-.15,0-.23,0-.26.07-.38,0-.15,0-.23.07-.28.1-.42,0-.13,0-.19.11-.41.16-.62c1.46-6.3,8.73-17.13,14.71-28.12l.16-.17C559.52,246.68,567,236,561,228.09c-3.37-4.33-7.06-6.11-11.07-6.14h-.38l-.88,0a19.15,19.15,0,0,0-2.9.43l-.1,0a22.5,22.5,0,0,0-2.93.91l-.36.13c-.46.19-.92.39-1.37.6l-.52.25-.73.37-.62.34-.79.45-.94.58-.71.47-.55.37c-.44.31-.89.64-1.33,1l-.35.27-.8.63-.81.66-.28.24a68.37,68.37,0,0,0-6.82,6.8,11.44,11.44,0,0,0-2.1-8.4,16.28,16.28,0,0,0-4.52-4.28,17,17,0,0,0-3.22,3c-1.6,1.95-3.24,4.2-4.9,6.65,0,4.25-5.12,12.42-10.64,21.79,0,.17-.16.33-.16.49-3.48,5.84-9.49,17.78-12.2,28a39.86,39.86,0,0,0-1.33,10.43,10.43,10.43,0,0,0,1.09,4.2c1.44,2.57,3.68,4.33,6.39,4.36a9.72,9.72,0,0,0,1.51-.13,5.53,5.53,0,0,0,4.15-3.49c.63-6.57,4.84-18.95,10.59-31.61a138.26,138.26,0,0,1,6.94-12.26v0c.32-.48.64-1.13,1-1.61,11-16.81,21-23.28,26.19-23.28h0c8.56,0,1.29,11.16-6.79,24.89-7.6,13.26-16,28.78-11.48,39.28,2.1,5,5.66,7.76,11.15,8.25h.47C555.48,302.28,574.88,265.75,579.89,256.86Z"/><rect class="cls-1" x="617.39" y="327.03" width="86.74" height="17.5" rx="5.29" transform="translate(1321.51 671.55) rotate(180)"/><rect class="cls-1" x="617.39" y="354.62" width="67.58" height="17.5" rx="5.29" transform="translate(1302.35 726.74) rotate(180)"/><rect class="cls-1" x="617.39" y="382.21" width="47.92" height="17.5" rx="5.29" transform="translate(1282.7 781.92) rotate(180)"/><rect class="cls-1" x="289.65" y="328.01" width="306.58" height="116.79" rx="16.62"/><path class="cls-2" d="M398.55,416.79q-4.55,5-13.3,8a58.11,58.11,0,0,1-19.19,3.05q-16.05,0-25.65-9.69t-10.27-27l-.06-7a47.65,47.65,0,0,1,4.27-20.8,31.34,31.34,0,0,1,12.2-13.68,34.84,34.84,0,0,1,18.38-4.8q15.27,0,23.71,6.9t9.85,20.58h-19q-1-6.76-4.37-9.64t-9.54-2.88a12.9,12.9,0,0,0-11.45,6.2q-4,6.21-4.1,17.73v4.88q0,12.07,4.18,18.14t13.16,6.06q7.69,0,11.45-3.38V397H365.16V383.67h33.39Z"/><path class="cls-2" d="M448.53,381.12l15-35h21.26l-26.32,51.68v29h-20v-29l-26.27-51.68h21.16Z"/><path class="cls-2" d="M550.08,392.53h-31v19.28h36.59v14.95H499.4V346.11h56.4v15H519.1v17h31Z"/><path class="cls-1" d="M180,255.24c-3.72,5.66-18.75,30.07-40.25,47.53-12.93,10.5-28.29,18.58-44.77,18.58-10.35,0-16.81-7.75-18.92-18.58-2.58-13.91,1.94-33,14.39-47.53,11.74-13.72,31.05-25.3,49.72-21,2,.47,4.91,2.09,7,1.59a2.12,2.12,0,0,0,1.49-1.17,3.12,3.12,0,0,0-.43-2.56c-2.19-4.27-5.6-7.43-9.47-10.16a28.2,28.2,0,0,0-8.57-4.21c-17.13-4.52,14.71-51.4,40.57-51.4,23.44,0,3.24,41.22-14.06,41.22a6.17,6.17,0,0,1-1-.08c-.1,0-.19,0-.29-.06a4.91,4.91,0,0,1-.58-.16c-.11,0-.2-.08-.31-.12a4.93,4.93,0,0,1-.46-.23l-.28-.18c-.13-.1-.26-.19-.38-.3a2.61,2.61,0,0,1-.24-.23,3.68,3.68,0,0,1-.32-.37l-.2-.27c-.1-.14-.18-.29-.27-.44s-.11-.2-.15-.3-.15-.36-.22-.55-.07-.19-.1-.29a6.85,6.85,0,0,1-.2-.81l0-.1c-.05-.32-.09-.66-.12-1,0-.11,0-.22,0-.33a6.1,6.1,0,0,1,0-.74c0-.14,0-.29,0-.43s0-.46,0-.7l.06-.48c0-.23,0-.47.09-.7l.09-.51c0-.24.09-.48.15-.73s.07-.34.12-.51.13-.51.2-.76l.15-.5c.08-.28.18-.56.28-.84l.15-.45c.13-.35.28-.71.42-1.06,0-.08.06-.16.1-.23.18-.44.38-.87.59-1.3.06-.13.13-.25.2-.38l.47-.91L155,190l.47-.79.33-.51c.16-.25.32-.5.49-.75l.36-.51.54-.72.39-.5.59-.7c.13-.15.26-.31.4-.46s.44-.48.67-.71l.38-.4c.28-.28.57-.54.86-.81l.26-.24c.39-.33.78-.66,1.18-1l.33-.23c.3-.23.6-.45.92-.66l.47-.3.83-.5L165,180c.27-.15.55-.29.82-.42l.58-.26.42-.19a2.15,2.15,0,0,0-.31-4.09l-.43-.07-.37-.05-.55,0-.35,0h-.9c-.29,0-.59,0-.89.08s-.59.1-.89.16l-.29.07-.59.15-.34.11-.53.17-.36.14-.51.21-.36.16-.49.24-.36.18-.49.28-.35.2-.5.32-.32.21-.54.38-.26.19c-.27.2-.53.41-.79.63s-.52.44-.78.66l-.24.24q-.25.23-.51.48l-.29.28-.45.47c-.1.1-.19.21-.29.32l-.42.46-.3.35-.39.48-.29.35-.39.51-.27.36-.39.54-.24.36-.41.61-.2.3c-.19.31-.39.63-.57.94s-.37.64-.55,1l-.17.32-.35.66-.19.39c-.1.21-.2.41-.29.61s-.13.28-.19.42l-.27.6-.18.43-.24.6c0,.14-.11.29-.17.43s-.14.41-.22.61l-.15.43c-.07.21-.13.42-.2.64l-.13.4c-.07.24-.13.47-.2.7L145,195c-.09.34-.17.68-.25,1v.05c-.08.34-.15.67-.21,1l-.06.34c0,.24-.07.47-.11.7s0,.27-.05.41,0,.42-.07.62,0,.29,0,.43,0,.4-.05.6,0,.29,0,.43,0,.39,0,.58,0,.29,0,.43,0,.39,0,.58,0,.28,0,.41,0,.4,0,.6l0,.38q0,.32.09.63a3.11,3.11,0,0,0,0,.32q.07.47.18.93c.07.31.15.61.23.9l.09.29c.07.2.13.4.2.59l.13.33.21.52.16.34.24.48c.06.11.12.22.19.33s.18.3.27.45l.21.32c.1.15.2.29.31.43l.23.3.36.42.24.27c.14.15.29.29.44.43a2.18,2.18,0,0,0,.22.21q.34.32.72.6c.25.19.52.38.79.55l.28.17.58.33.35.18.57.27.4.16.59.23.44.15.62.18.47.13.68.15.48.1.75.11.49.07c.28,0,.57.06.87.09l.43,0c.45,0,.9,0,1.38,0,20.2,0,38.79-30.87,33.78-49.3-2.1-7.75-8.41-13.25-20.37-13.25-13.74,0-26.51,5.33-36.85,13.25-.62.47-1.22.94-1.82,1.42l-.59.48-1.18,1-.68.6c-.35.3-.7.6-1,.91l-.71.66-.95.89-.71.7c-.3.29-.6.59-.89.89l-.7.72-.85.9-.68.75-.8.9c-.23.26-.45.51-.66.77l-.77.91-.63.78-.73.93-.6.79c-.24.31-.47.62-.7.94l-.57.79-.66.95c-.18.27-.36.53-.53.8s-.42.64-.63,1l-.5.79-.59,1-.46.79c-.19.33-.38.66-.56,1s-.29.52-.42.78-.36.68-.53,1-.26.49-.38.74l-.51,1.09c-.1.23-.21.45-.31.68-.19.42-.36.83-.53,1.24-.07.17-.15.35-.22.53-.24.58-.46,1.17-.67,1.75,0,.08,0,.16-.07.24q-.27.75-.51,1.5c-.06.21-.11.41-.17.61-.11.37-.23.75-.32,1.12s-.12.46-.17.69-.17.67-.24,1-.1.48-.15.72l-.18,1c0,.25-.07.49-.1.73s-.09.62-.13.93,0,.48-.07.73,0,.59-.07.89l0,.72c0,.29,0,.58,0,.87s0,.48,0,.71,0,.56,0,.84l.06.7q0,.41.09.81c0,.23.06.46.1.68s.09.53.15.79.09.44.14.66.13.51.2.76.13.42.19.63.17.5.27.74.15.4.23.6a16,16,0,0,0,1.23,2.4c-1.35.4-2.66.79-4,1.23l-.25.09c-.51.17-1,.35-1.51.54l-.46.17c-.59.23-1.17.46-1.75.72-15.52,6.62-28,19.56-35.88,33.29C59.75,270.76,56,288.06,58,302.77c2.43,18.75,13.74,33.13,34.59,33.13,22.63,0,43-15,59.64-33.13,14.39-15.68,25.7-33.79,32.66-46.07a2.64,2.64,0,0,0,.48-1.46C185.5,252.82,181.78,252.17,180,255.24Z"/></svg>